<svg width="19" height="18" viewBox="0 0 19 18" fill="none" xmlns="http://www.w3.org/2000/svg">
<path d="M11.9178 1.71366C11.7997 0.749697 10.8963 0 9.79947 0H6.48398C5.38708 0 4.48371 0.749697 4.36566 1.71366L2.69486 1.71414C1.51773 1.71414 0.563477 2.57752 0.563477 3.64255V15.213C0.563477 16.278 1.51773 17.1414 2.69486 17.1414H7.19577C7.18895 16.9764 7.20761 16.8061 7.25526 16.6336L7.4702 15.8558H2.69486C2.30249 15.8558 1.9844 15.568 1.9844 15.213V3.64255C1.9844 3.28754 2.30249 2.99975 2.69486 2.99975L4.71164 2.99992C5.09401 3.51665 5.74508 3.85682 6.48398 3.85682H9.79947C10.5383 3.85682 11.1895 3.51662 11.5718 2.99989L13.5886 2.99975C13.981 2.99975 14.2991 3.28754 14.2991 3.64255V8.45123C14.7131 8.10823 15.2047 7.88488 15.72 7.78118V3.64255C15.72 2.57752 14.7657 1.71414 13.5886 1.71414L11.9178 1.71366ZM11.9259 1.79638L11.9309 1.92841C11.9309 1.88403 11.9292 1.84 11.9259 1.79638ZM6.48398 1.28561H9.79947C10.1918 1.28561 10.5099 1.5734 10.5099 1.92841C10.5099 2.28342 10.1918 2.57121 9.79947 2.57121H6.48398C6.09161 2.57121 5.77352 2.28342 5.77352 1.92841C5.77352 1.5734 6.09161 1.28561 6.48398 1.28561ZM9.42624 12.8561H4.3526C3.96023 12.8561 3.64214 13.1439 3.64214 13.4989C3.64214 13.8539 3.96023 14.1417 4.3526 14.1417H8.12562C8.26279 13.9456 8.42402 13.7628 8.60703 13.5973L9.42624 12.8561ZM8.14173 10.7134H4.3526C3.96023 10.7134 3.64214 10.4256 3.64214 10.0706C3.64214 9.71558 3.96023 9.42778 4.3526 9.42778H8.14173C8.53409 9.42778 8.85219 9.71558 8.85219 10.0706C8.85219 10.4256 8.53409 10.7134 8.14173 10.7134ZM11.9309 7.2851H4.3526C3.96023 7.2851 3.64214 6.9973 3.64214 6.6423C3.64214 6.28729 3.96023 5.9995 4.3526 5.9995H11.9309C12.3232 5.9995 12.6413 6.28729 12.6413 6.6423C12.6413 6.9973 12.3232 7.2851 11.9309 7.2851ZM14.8673 9.14452L9.276 14.2033C8.95004 14.4982 8.71881 14.8678 8.60694 15.2725L8.17336 16.8415C7.98486 17.5238 8.66803 18.142 9.42216 17.9713L11.1564 17.579C11.6036 17.4779 12.012 17.2687 12.3381 16.9737L17.9293 11.9149C18.7749 11.1499 18.7749 9.90954 17.9293 9.14452C17.0838 8.37941 15.7129 8.37941 14.8673 9.14452Z" fill="white"/>
</svg>
