<svg width="18" height="18" viewBox="0 0 18 18" fill="none" xmlns="http://www.w3.org/2000/svg">
<path d="M5.4375 4.5C5.28832 4.5 5.14524 4.55926 5.03975 4.66475C4.93426 4.77024 4.875 4.91332 4.875 5.0625V10.6875C4.875 10.8367 4.93426 10.9798 5.03975 11.0852C5.14524 11.1907 5.28832 11.25 5.4375 11.25C5.58668 11.25 5.72976 11.1907 5.83525 11.0852C5.94074 10.9798 6 10.8367 6 10.6875V5.0625C6 4.91332 5.94074 4.77024 5.83525 4.66475C5.72976 4.55926 5.58668 4.5 5.4375 4.5ZM9 4.5C8.85082 4.5 8.70774 4.55926 8.60225 4.66475C8.49676 4.77024 8.4375 4.91332 8.4375 5.0625V8.4375C8.4375 8.58668 8.49676 8.72976 8.60225 8.83525C8.70774 8.94074 8.85082 9 9 9C9.14918 9 9.29226 8.94074 9.39775 8.83525C9.50324 8.72976 9.5625 8.58668 9.5625 8.4375V5.0625C9.5625 4.91332 9.50324 4.77024 9.39775 4.66475C9.29226 4.55926 9.14918 4.5 9 4.5ZM12 5.0625C12 4.91332 12.0593 4.77024 12.1648 4.66475C12.2702 4.55926 12.4133 4.5 12.5625 4.5C12.7117 4.5 12.8548 4.55926 12.9602 4.66475C13.0657 4.77024 13.125 4.91332 13.125 5.0625V12.1875C13.125 12.3367 13.0657 12.4798 12.9602 12.5852C12.8548 12.6907 12.7117 12.75 12.5625 12.75C12.4133 12.75 12.2702 12.6907 12.1648 12.5852C12.0593 12.4798 12 12.3367 12 12.1875V5.0625Z" fill="white"/>
<path d="M2.8125 1.5H15.1875C15.912 1.5 16.5 2.088 16.5 2.8125V15.1875C16.5 15.5356 16.3617 15.8694 16.1156 16.1156C15.8694 16.3617 15.5356 16.5 15.1875 16.5H2.8125C2.4644 16.5 2.13056 16.3617 1.88442 16.1156C1.63828 15.8694 1.5 15.5356 1.5 15.1875V2.8125C1.5 2.088 2.088 1.5 2.8125 1.5ZM2.625 2.8125V15.1875C2.625 15.291 2.709 15.375 2.8125 15.375H15.1875C15.2372 15.375 15.2849 15.3552 15.3201 15.3201C15.3552 15.2849 15.375 15.2372 15.375 15.1875V2.8125C15.375 2.76277 15.3552 2.71508 15.3201 2.67992C15.2849 2.64475 15.2372 2.625 15.1875 2.625H2.8125C2.76277 2.625 2.71508 2.64475 2.67992 2.67992C2.64475 2.71508 2.625 2.76277 2.625 2.8125Z" fill="white"/>
</svg>
