<svg width="15" height="15" viewBox="0 0 15 15" fill="none" xmlns="http://www.w3.org/2000/svg">
<g clip-path="url(#clip0_603_5342)">
<path d="M10.1517 2.34835C10.8549 3.05161 11.25 4.00544 11.25 5C11.25 9.375 13.125 10.625 13.125 10.625H1.875C1.875 10.625 3.75 9.375 3.75 5C3.75 4.00544 4.14509 3.05161 4.84835 2.34835C5.55161 1.64509 6.50544 1.25 7.5 1.25C8.49456 1.25 9.44839 1.64509 10.1517 2.34835Z" stroke="#02353C" stroke-width="2" stroke-linecap="round" stroke-linejoin="round"/>
<path d="M8.58144 13.125C8.47156 13.3144 8.31385 13.4717 8.12409 13.581C7.93433 13.6903 7.71918 13.7478 7.50019 13.7478C7.28121 13.7478 7.06606 13.6903 6.8763 13.581C6.68654 13.4717 6.52883 13.3144 6.41895 13.125" stroke="#02353C" stroke-width="2" stroke-linecap="round" stroke-linejoin="round"/>
</g>
<defs>
<clipPath id="clip0_603_5342">
<rect width="15" height="15" fill="white"/>
</clipPath>
</defs>
</svg>
