<svg width="15" height="18" viewBox="0 0 15 18" fill="none" xmlns="http://www.w3.org/2000/svg">
<path d="M8.08594 9.89559V8.43309C8.08594 8.12241 7.82363 7.87059 7.5 7.87059C7.17637 7.87059 6.91406 8.12241 6.91406 8.43309V10.4581C6.91406 10.7688 7.17637 11.0206 7.5 11.0206C7.51978 11.0206 7.53928 11.0197 7.55859 11.0178C7.57791 11.0197 7.59741 11.0206 7.61719 11.0206H8.78906C9.11269 11.0206 9.375 10.7688 9.375 10.4581C9.375 10.1474 9.11269 9.89559 8.78906 9.89559H8.08594ZM3.04688 9.9C3.04688 7.53894 5.04061 5.625 7.5 5.625C9.95944 5.625 11.9531 7.53894 11.9531 9.9C11.9531 12.2611 9.95944 14.175 7.5 14.175C5.04061 14.175 3.04688 12.2611 3.04688 9.9ZM7.5 6.75C5.68781 6.75 4.21875 8.1603 4.21875 9.9C4.21875 11.6397 5.68781 13.05 7.5 13.05C9.31219 13.05 10.7812 11.6397 10.7812 9.9C10.7812 8.1603 9.31219 6.75 7.5 6.75ZM11.2444 1.87604C11.165 0.827217 10.2534 0 9.14062 0H5.85938C4.7738 0 3.87976 0.787248 3.76293 1.7995L2.10938 1.8C0.9444 1.8 0 2.70662 0 3.825V15.975C0 17.0933 0.9444 18 2.10938 18H12.8906C14.0556 18 15 17.0933 15 15.975V3.825C15 2.70662 14.0556 1.8 12.8906 1.8L11.2371 1.7995C11.24 1.82488 11.2424 1.85039 11.2444 1.87604ZM11.2451 1.88636L11.25 2.025C11.25 1.9784 11.2484 1.93217 11.2451 1.88636ZM5.85938 4.05H9.14062C9.87187 4.05 10.5163 3.69276 10.8947 3.15014L12.8906 3.15C13.2789 3.15 13.5938 3.45221 13.5938 3.825V15.975C13.5938 16.3478 13.2789 16.65 12.8906 16.65H2.10938C1.72105 16.65 1.40625 16.3478 1.40625 15.975V3.825C1.40625 3.45221 1.72105 3.15 2.10938 3.15L4.10533 3.15018C4.48375 3.69279 5.1281 4.05 5.85938 4.05ZM5.85938 1.35H9.14062C9.52894 1.35 9.84375 1.65221 9.84375 2.025C9.84375 2.39779 9.52894 2.7 9.14062 2.7H5.85938C5.47105 2.7 5.15625 2.39779 5.15625 2.025C5.15625 1.65221 5.47105 1.35 5.85938 1.35Z" fill="white"/>
</svg>
