<svg width="45" height="45" viewBox="0 0 45 45" fill="none" xmlns="http://www.w3.org/2000/svg">
<rect y="-0.00195312" width="45" height="45" rx="22.5" fill="#F2F5F9"/>
<path d="M10.2306 22.3096C10.8943 20.488 12.2419 18.5567 14.2733 16.5156C16.3048 14.4746 19.0456 12.3021 22.4958 9.99805C25.9471 12.3012 28.6884 14.4738 30.7199 16.5156C32.7514 18.5575 34.0984 20.4888 34.7611 22.3096H10.2306ZM35 26.895C34.7611 27.921 34.3427 28.8896 33.7448 29.8008C33.1469 30.712 32.3839 31.5336 31.4558 32.2656C30.5266 32.9985 29.4844 33.5952 28.329 34.0558C27.1736 34.5165 25.9593 34.8305 24.686 34.998L35 26.895ZM28.509 24.8222H33.0487L20.1463 34.998C19.5357 34.8934 18.9453 34.7732 18.375 34.6375C17.8048 34.5018 17.2536 34.3184 16.7216 34.0872L28.509 24.8222ZM19.3897 24.8222H23.9294L14.0137 32.6425C13.6155 32.3494 13.2374 32.0458 12.8795 31.7317C12.5217 31.4176 12.1962 31.0826 11.9031 30.7267L19.3897 24.8222ZM10.2306 24.8222H14.7703L10.3899 28.2769C10.1775 27.7116 10.0511 27.1358 10.0107 26.5496C9.9704 25.9633 10.0437 25.3875 10.2306 24.8222Z" fill="#C85454"/>
</svg>
