<svg width="45" height="45" viewBox="0 0 45 45" fill="none" xmlns="http://www.w3.org/2000/svg">
<rect width="45" height="45" rx="22.5" fill="#F2F5F9"/>
<g clip-path="url(#clip0_618_22947)">
<path d="M28.7493 12.0833C29.2749 12.0831 29.7812 12.2816 30.1666 12.639C30.552 12.9964 30.7881 13.4862 30.8275 14.0103L30.8327 14.1666V30.8333C30.8328 31.3589 30.6343 31.8651 30.277 32.2505C29.9196 32.6359 29.4297 32.872 28.9056 32.9114L28.7493 32.9166H16.2493C15.7237 32.9167 15.2175 32.7182 14.8321 32.3609C14.4467 32.0035 14.2106 31.5136 14.1712 30.9895L14.166 30.8333V14.1666C14.1658 13.641 14.3644 13.1347 14.7217 12.7493C15.0791 12.364 15.569 12.1279 16.0931 12.0885L16.2493 12.0833H28.7493ZM28.7493 14.1666H16.2493V30.8333H28.7493V14.1666ZM23.0202 26.6666C23.1421 26.6665 23.2601 26.7093 23.3538 26.7873C23.4474 26.8653 23.5107 26.9738 23.5327 27.0937L23.541 27.1874V28.2291C23.5411 28.351 23.4983 28.469 23.4203 28.5627C23.3423 28.6563 23.2338 28.7196 23.1139 28.7416L23.0202 28.7499H21.9785C21.8566 28.75 21.7386 28.7072 21.6449 28.6292C21.5513 28.5512 21.488 28.4427 21.466 28.3228L21.4577 28.2291V27.1874C21.4576 27.0655 21.5004 26.9475 21.5784 26.8538C21.6564 26.7602 21.7649 26.6969 21.8848 26.6749L21.9785 26.6666H23.0202Z" fill="#83F0FF"/>
</g>
<defs>
<clipPath id="clip0_618_22947">
<rect width="25" height="25" fill="white" transform="translate(10 10)"/>
</clipPath>
</defs>
</svg>
