<svg width="45" height="45" viewBox="0 0 45 45" fill="none" xmlns="http://www.w3.org/2000/svg">
<rect y="-0.00195312" width="45" height="45" rx="22.5" fill="#F2F5F9"/>
<path d="M12.6035 29.7898V17.2898H32.3952V29.7898C32.3952 30.9356 31.4577 31.8731 30.3118 31.8731H14.6868C13.541 31.8731 12.6035 30.9356 12.6035 29.7898Z" fill="#FFCDD2"/>
<path d="M32.3952 15.2064V18.3314H12.6035V15.2064C12.6035 14.0605 13.541 13.123 14.6868 13.123H30.3118C31.4577 13.123 32.3952 14.0605 32.3952 15.2064Z" fill="#F44336"/>
<path d="M27.1875 16.7688C28.0504 16.7688 28.75 16.0692 28.75 15.2063C28.75 14.3434 28.0504 13.6438 27.1875 13.6438C26.3246 13.6438 25.625 14.3434 25.625 15.2063C25.625 16.0692 26.3246 16.7688 27.1875 16.7688Z" fill="#B71C1C"/>
<path d="M17.8125 16.7688C18.6754 16.7688 19.375 16.0692 19.375 15.2063C19.375 14.3434 18.6754 13.6438 17.8125 13.6438C16.9496 13.6438 16.25 14.3434 16.25 15.2063C16.25 16.0692 16.9496 16.7688 17.8125 16.7688Z" fill="#B71C1C"/>
<path d="M27.1882 11.5605C26.6152 11.5605 26.1465 12.0293 26.1465 12.6022V15.2064C26.1465 15.7793 26.6152 16.248 27.1882 16.248C27.7611 16.248 28.2298 15.7793 28.2298 15.2064V12.6022C28.2298 12.0293 27.7611 11.5605 27.1882 11.5605ZM17.8132 11.5605C17.2402 11.5605 16.7715 12.0293 16.7715 12.6022V15.2064C16.7715 15.7793 17.2402 16.248 17.8132 16.248C18.3861 16.248 18.8548 15.7793 18.8548 15.2064V12.6022C18.8548 12.0293 18.3861 11.5605 17.8132 11.5605Z" fill="#BDBDBD"/>
<path d="M21.5625 28.3835C21.5625 28.2794 21.5625 28.1231 21.6146 28.019C21.6667 27.9148 21.7187 27.8106 21.8229 27.7585C21.9271 27.7065 21.9792 27.6023 22.0833 27.6023C22.1875 27.5502 22.3437 27.5502 22.4479 27.5502C22.5521 27.5502 22.7083 27.5502 22.8125 27.6023L23.125 27.7585C23.2292 27.8106 23.2812 27.9148 23.3333 28.019C23.3854 28.1231 23.3854 28.2273 23.3854 28.3835C23.3854 28.4877 23.3854 28.644 23.3333 28.7481C23.2812 28.8523 23.2292 28.9565 23.125 29.0085C23.0208 29.0606 22.9687 29.1648 22.8125 29.1648C22.6562 29.1648 22.6562 29.269 22.5 29.269C22.3437 29.269 22.2396 29.269 22.1354 29.2169C22.0312 29.1648 21.9271 29.1127 21.875 29.0606C21.7708 29.0085 21.7187 28.9044 21.6667 28.8002C21.6146 28.644 21.5625 28.5398 21.5625 28.3835ZM23.1771 26.144H21.8229L21.6146 20.4148H23.3333L23.1771 26.144Z" fill="#F44336"/>
</svg>
