<svg width="45" height="45" viewBox="0 0 45 45" fill="none" xmlns="http://www.w3.org/2000/svg">
<rect width="45" height="45" rx="22.5" fill="#F2F5F9"/>
<g clip-path="url(#clip0_618_22922)">
<path d="M32.3958 14.1667H30.1388V15.5556H32.2222V30.8334H12.7777V15.5556H14.8611V14.1667H12.6041C12.4418 14.1695 12.2816 14.2041 12.1326 14.2688C11.9837 14.3334 11.849 14.4268 11.7361 14.5435C11.6233 14.6602 11.5345 14.798 11.4749 14.949C11.4153 15.1001 11.3861 15.2614 11.3889 15.4237V30.9654C11.3861 31.1277 11.4153 31.289 11.4749 31.44C11.5345 31.591 11.6233 31.7289 11.7361 31.8456C11.849 31.9623 11.9837 32.0556 12.1326 32.1203C12.2816 32.1849 12.4418 32.2196 12.6041 32.2223H32.3958C32.5581 32.2196 32.7183 32.1849 32.8673 32.1203C33.0162 32.0556 33.151 31.9623 33.2638 31.8456C33.3767 31.7289 33.4654 31.591 33.525 31.44C33.5846 31.289 33.6138 31.1277 33.6111 30.9654V15.4237C33.6138 15.2614 33.5846 15.1001 33.525 14.949C33.4654 14.798 33.3767 14.6602 33.2638 14.5435C33.151 14.4268 33.0162 14.3334 32.8673 14.2688C32.7183 14.2041 32.5581 14.1695 32.3958 14.1667Z" fill="#FFB185"/>
<path d="M15.5547 19.7222H16.9436V21.1111H15.5547V19.7222Z" fill="#FFB185"/>
<path d="M19.7227 19.7222H21.1115V21.1111H19.7227V19.7222Z" fill="#FFB185"/>
<path d="M23.8887 19.7222H25.2776V21.1111H23.8887V19.7222Z" fill="#FFB185"/>
<path d="M28.0547 19.7222H29.4436V21.1111H28.0547V19.7222Z" fill="#FFB185"/>
<path d="M15.5547 23.1943H16.9436V24.5832H15.5547V23.1943Z" fill="#FFB185"/>
<path d="M19.7227 23.1943H21.1115V24.5832H19.7227V23.1943Z" fill="#FFB185"/>
<path d="M23.8887 23.1943H25.2776V24.5832H23.8887V23.1943Z" fill="#FFB185"/>
<path d="M28.0547 23.1943H29.4436V24.5832H28.0547V23.1943Z" fill="#FFB185"/>
<path d="M15.5547 26.6667H16.9436V28.0556H15.5547V26.6667Z" fill="#FFB185"/>
<path d="M19.7227 26.6667H21.1115V28.0556H19.7227V26.6667Z" fill="#FFB185"/>
<path d="M23.8887 26.6667H25.2776V28.0556H23.8887V26.6667Z" fill="#FFB185"/>
<path d="M28.0547 26.6667H29.4436V28.0556H28.0547V26.6667Z" fill="#FFB185"/>
<path d="M16.9444 16.9445C17.1286 16.9445 17.3053 16.8713 17.4355 16.7411C17.5657 16.6108 17.6389 16.4342 17.6389 16.25V12.0834C17.6389 11.8992 17.5657 11.7225 17.4355 11.5923C17.3053 11.4621 17.1286 11.3889 16.9444 11.3889C16.7603 11.3889 16.5836 11.4621 16.4534 11.5923C16.3232 11.7225 16.25 11.8992 16.25 12.0834V16.25C16.25 16.4342 16.3232 16.6108 16.4534 16.7411C16.5836 16.8713 16.7603 16.9445 16.9444 16.9445Z" fill="#FFB185"/>
<path d="M28.0558 16.9445C28.24 16.9445 28.4166 16.8713 28.5468 16.7411C28.6771 16.6108 28.7502 16.4342 28.7502 16.25V12.0834C28.7502 11.8992 28.6771 11.7225 28.5468 11.5923C28.4166 11.4621 28.24 11.3889 28.0558 11.3889C27.8716 11.3889 27.695 11.4621 27.5647 11.5923C27.4345 11.7225 27.3613 11.8992 27.3613 12.0834V16.25C27.3613 16.4342 27.4345 16.6108 27.5647 16.7411C27.695 16.8713 27.8716 16.9445 28.0558 16.9445Z" fill="#FFB185"/>
</g>
<defs>
<clipPath id="clip0_618_22922">
<rect width="25" height="25" fill="white" transform="translate(10 10)"/>
</clipPath>
</defs>
</svg>
