<svg width="45" height="45" viewBox="0 0 45 45" fill="none" xmlns="http://www.w3.org/2000/svg">
<rect width="45" height="45" rx="22.5" fill="#F2F5F9"/>
<path d="M35 35V23.375C35 22.8929 34.5768 22.4911 34.0477 22.4911H26.3524V18.9286H28.2763V19.9911C28.2763 20.3929 28.6225 20.7143 29.0458 20.7143H32.3067C32.7395 20.7143 33.0858 20.3929 33.0858 20V12.5089C33.0858 12.1071 32.7395 11.7857 32.3163 11.7857H29.0554C28.6225 11.7857 28.2763 12.1071 28.2763 12.5089V13.5714H26.3524V10.8214C26.3524 10.3661 25.9581 10 25.4675 10H10.885C10.3944 10 10 10.3661 10 10.8214V34.9821H11.9046V30.5625C11.9046 30.0536 12.3471 29.6429 12.8953 29.6429H23.4379C23.9861 29.6429 24.4286 30.0536 24.4286 30.5625V35H23.4763V30.8482C23.4763 30.6786 23.3321 30.5357 23.1397 30.5357H20.9465C20.7638 30.5357 20.6098 30.6696 20.6098 30.8482V35H17.6953H35ZM26.3524 32.3304V29.6429H27.7953C28.0646 29.6429 28.2763 29.8482 28.2763 30.0893V31.875C28.2763 32.125 28.0646 32.3214 27.7953 32.3304H26.3524ZM26.3524 27.8661V25.1786H27.7953C28.0646 25.1786 28.2763 25.3839 28.2763 25.625V27.4107C28.2763 27.6607 28.0646 27.8571 27.7953 27.8661H26.3524ZM28.2763 18.0357H26.3524V14.4643H28.2763V18.0357ZM33.0858 25.625V27.4107C33.0858 27.6607 32.8742 27.8571 32.6048 27.8661H30.6618C30.3925 27.8661 30.1808 27.6607 30.1808 27.4196V25.625C30.1808 25.375 30.4021 25.1786 30.6618 25.1786H32.6048C32.8742 25.1786 33.0858 25.3839 33.0858 25.625ZM33.0858 30.0893V31.875C33.0858 32.125 32.8742 32.3214 32.6048 32.3304H30.6618C30.3925 32.3304 30.1808 32.125 30.1808 31.8839V30.0893C30.1808 29.8393 30.4021 29.6429 30.6618 29.6429H32.6048C32.8742 29.6429 33.0858 29.8482 33.0858 30.0893ZM19.6287 12.2321V14.0179C19.6287 14.2679 19.4171 14.4643 19.1477 14.4643H17.2047C16.9354 14.4643 16.7237 14.2589 16.7237 14.0179V12.2321C16.7237 11.9821 16.945 11.7857 17.2047 11.7857H19.1477C19.4171 11.7857 19.6287 11.9911 19.6287 12.2321ZM19.6287 18.4821C19.6287 18.7321 19.4171 18.9286 19.1477 18.9286H17.2047C16.9354 18.9286 16.7237 18.7232 16.7237 18.4821V16.6964C16.7237 16.4464 16.945 16.25 17.2047 16.25H19.1477C19.4171 16.25 19.6287 16.4554 19.6287 16.6964V18.4821ZM19.6287 21.1607V22.9464C19.6287 23.1964 19.4171 23.3929 19.1477 23.4018H17.2047C16.9354 23.4018 16.7237 23.1964 16.7237 22.9554V21.1607C16.7237 20.9107 16.945 20.7143 17.2047 20.7143H19.1477C19.4171 20.7143 19.6287 20.9196 19.6287 21.1607ZM19.6287 25.625V27.4107C19.6287 27.6607 19.4171 27.8571 19.1477 27.8661H17.2047C16.9354 27.8661 16.7237 27.6607 16.7237 27.4196V25.625C16.7237 25.375 16.945 25.1786 17.2047 25.1786H19.1477C19.4171 25.1786 19.6287 25.3839 19.6287 25.625ZM24.4479 27.4107C24.4479 27.6607 24.2266 27.8571 23.9669 27.8661H22.0239C21.7545 27.8661 21.5429 27.6607 21.5429 27.4196V25.625C21.5429 25.375 21.7641 25.1786 22.0239 25.1786H23.9669C24.2362 25.1786 24.4479 25.3839 24.4479 25.625V27.4107ZM24.4479 21.1607V22.9464C24.4479 23.1964 24.2266 23.3929 23.9669 23.4018H22.0239C21.7545 23.4018 21.5429 23.1964 21.5429 22.9554V21.1607C21.5429 20.9107 21.7641 20.7143 22.0239 20.7143H23.9669C24.2362 20.7143 24.4479 20.9196 24.4479 21.1607ZM24.4479 18.4821C24.4479 18.7321 24.2266 18.9286 23.9669 18.9286H22.0239C21.7545 18.9286 21.5429 18.7232 21.5429 18.4821V16.6964C21.5429 16.4464 21.7545 16.25 22.0239 16.25H23.9669C24.2362 16.25 24.4479 16.4554 24.4479 16.6964V18.4821ZM24.4479 12.2321V14.0179C24.4479 14.2679 24.2266 14.4643 23.9669 14.4643H22.0239C21.7545 14.4643 21.5429 14.2679 21.5429 14.0179V12.2321C21.5429 11.9821 21.7545 11.7857 22.0239 11.7857H23.9669C24.2362 11.7857 24.4479 11.9911 24.4479 12.2321ZM14.8192 27.4107C14.8192 27.6607 14.6075 27.8571 14.3382 27.8661H12.3952C12.1258 27.8661 11.9142 27.6607 11.9142 27.4196V25.625C11.9142 25.375 12.1354 25.1786 12.3952 25.1786H14.3382C14.6075 25.1786 14.8192 25.3839 14.8192 25.625V27.4107ZM14.8192 21.1607V22.9464C14.8192 23.1964 14.6075 23.3929 14.3382 23.4018H12.3952C12.1258 23.4018 11.9142 23.1964 11.9142 22.9554V21.1607C11.9142 20.9107 12.1354 20.7143 12.3952 20.7143H14.3382C14.6075 20.7143 14.8192 20.9196 14.8192 21.1607ZM14.8192 18.4821C14.8192 18.7321 14.6075 18.9286 14.3382 18.9286H12.3952C12.1258 18.9286 11.9142 18.7232 11.9142 18.4821V16.6964C11.9142 16.4464 12.1354 16.25 12.3952 16.25H14.3382C14.6075 16.25 14.8192 16.4554 14.8192 16.6964V18.4821ZM14.8192 12.2321V14.0179C14.8192 14.2679 14.6075 14.4643 14.3382 14.4643H12.3952C12.1258 14.4643 11.9142 14.2589 11.9142 14.0179V12.2321C11.9142 11.9821 12.1354 11.7857 12.3952 11.7857H14.3382C14.6075 11.7857 14.8192 11.9911 14.8192 12.2321Z" fill="#FF96C8"/>
<path d="M19.6201 34.999H16.7536V30.8472C16.7536 30.6686 16.9075 30.5347 17.0903 30.5347H19.2834C19.4662 30.5347 19.6201 30.6686 19.6201 30.8472V34.999ZM15.7532 30.8472V34.999H12.8867V30.8472C12.8867 30.6686 13.031 30.5347 13.2234 30.5347H15.4165C15.6089 30.5347 15.7532 30.6775 15.7532 30.8472Z" fill="#FF96C8"/>
</svg>
