<svg width="45" height="45" viewBox="0 0 45 45" fill="none" xmlns="http://www.w3.org/2000/svg">
<rect width="45" height="45" rx="22.5" fill="#F2F5F9"/>
<path d="M12.5 15H10V32.5C10 33.163 10.2634 33.7989 10.7322 34.2678C11.2011 34.7366 11.837 35 12.5 35H30V32.5H12.5V15ZM32.5 10C33.163 10 33.7989 10.2634 34.2678 10.7322C34.7366 11.2011 35 11.837 35 12.5V27.5C35 28.163 34.7366 28.7989 34.2678 29.2678C33.7989 29.7366 33.163 30 32.5 30H17.5C16.837 30 16.2011 29.7366 15.7322 29.2678C15.2634 28.7989 15 28.163 15 27.5V12.5C15 11.837 15.2634 11.2011 15.7322 10.7322C16.2011 10.2634 16.837 10 17.5 10H32.5ZM28.75 16.25C28.75 15.2554 28.3549 14.3016 27.6517 13.5983C26.9484 12.8951 25.9946 12.5 25 12.5C24.0054 12.5 23.0516 12.8951 22.3483 13.5983C21.6451 14.3016 21.25 15.2554 21.25 16.25C21.25 17.2446 21.6451 18.1984 22.3483 18.9017C23.0516 19.6049 24.0054 20 25 20C25.9946 20 26.9484 19.6049 27.6517 18.9017C28.3549 18.1984 28.75 17.2446 28.75 16.25ZM17.5 26.25V27.5H32.5V26.25C32.5 23.75 27.5 22.375 25 22.375C22.5 22.375 17.5 23.75 17.5 26.25Z" fill="#FF7C7C"/>
</svg>
