<svg width="45" height="45" viewBox="0 0 45 45" fill="none" xmlns="http://www.w3.org/2000/svg">
<rect y="-0.00195312" width="45" height="45" rx="22.5" fill="#F2F5F9"/>
<path d="M17.6257 20.998L18.7298 19.8938L17.6257 18.7896L18.7298 17.6855L20.9382 19.8938L18.7298 22.1021L17.6257 20.998ZM14.6882 19.373C14.7194 19.373 14.7402 19.3834 14.7715 19.3834C15.3928 17.8422 16.4607 16.5218 17.8379 15.5919C19.2151 14.662 20.8389 14.165 22.5007 14.1646C24.7819 14.1646 26.834 15.0813 28.3444 16.5605C28.5007 15.9355 28.8132 15.2167 29.1882 14.5188C27.3132 12.9412 24.9406 12.0778 22.4902 12.0813C17.4069 12.0813 13.1777 15.7376 12.2715 20.5605C12.8548 19.8313 13.7402 19.373 14.6882 19.373ZM31.8757 20.9355C31.4382 20.9355 31.0215 20.8417 30.6361 20.7063C30.7611 21.2792 30.834 21.8834 30.834 22.498C30.834 27.1021 27.1048 30.8313 22.5007 30.8313C19.0007 30.8313 16.0111 28.6751 14.7715 25.6126C14.7402 25.6126 14.7194 25.623 14.6882 25.623C14.1465 25.623 13.6048 25.4771 13.1257 25.2063C12.7923 25.0188 12.5111 24.7688 12.2715 24.4771C13.1986 29.2792 17.4069 32.9146 22.4798 32.9146C28.2506 32.9146 32.9173 28.248 32.9173 22.498C32.9173 21.9251 32.8548 21.3626 32.7715 20.8105C32.4792 20.8892 32.1783 20.9312 31.8757 20.9355ZM31.8757 13.123C31.8757 13.123 29.7923 16.1438 29.7923 17.2896C29.7923 18.4355 30.7298 19.373 31.8757 19.373C33.0215 19.373 33.959 18.4355 33.959 17.2896C33.959 16.1438 31.8757 13.123 31.8757 13.123ZM26.2715 17.6855L24.0632 19.8938L26.2715 22.1021L27.3757 20.998L26.2715 19.8938L27.3757 18.7896L26.2715 17.6855ZM18.9173 27.7063C19.6361 26.4667 20.9694 25.623 22.5007 25.623C24.0319 25.623 25.3652 26.4667 26.084 27.7063H27.834C27.0007 25.5709 24.9277 24.0605 22.5007 24.0605C21.5944 24.0605 20.7298 24.2688 19.9694 24.6542L16.2402 22.498C16.2402 21.9563 15.9694 21.4355 15.4694 21.1542C14.7194 20.7271 13.7715 20.9771 13.334 21.7271C12.9069 22.4771 13.1569 23.4251 13.9069 23.8626C14.4069 24.1542 15.0007 24.123 15.459 23.8626L18.5527 25.6542C17.959 26.2063 17.4798 26.9146 17.1673 27.7063H18.9173Z" fill="#DCBA43"/>
</svg>
