<svg width="130" height="149" viewBox="0 0 130 149" fill="none" xmlns="http://www.w3.org/2000/svg">
<g clip-path="url(#clip0_702_3020)">
<path d="M64.1999 11.6C63.4999 7.8 63.3999 3.9 63.9999 0C64.7999 3.9 64.8999 7.7 64.1999 11.6Z" fill="#263238"/>
<path d="M37.7 19C35.1 16 33.1 12.7 31.7 9C34.3 12 36.3 15.3 37.7 19Z" fill="#263238"/>
<path d="M18.5 38.7C14.8 37.4 11.4 35.6 8.30005 33.1C12 34.3 15.4 36.2 18.5 38.7Z" fill="#263238"/>
<path d="M11.6 65.3C7.8 66.1 3.9 66.2 0 65.6C3.9 64.8 7.7 64.7 11.6 65.3Z" fill="#263238"/>
<path d="M19 91.9C16 94.5 12.7 96.5 9 97.9C12 95.3 15.3 93.3 19 91.9Z" fill="#263238"/>
<path d="M111.1 90.9C114.8 92.2 118.2 94 121.3 96.5C117.6 95.3 114.2 93.4 111.1 90.9Z" fill="#263238"/>
<path d="M118 64.2C121.9 63.4 125.7 63.4 129.6 64C125.7 64.8 121.8 64.9 118 64.2Z" fill="#263238"/>
<path d="M110.6 37.7C113.6 35.1 116.9 33.1 120.6 31.7C117.6 34.3 114.2 36.3 110.6 37.7Z" fill="#263238"/>
<path d="M90.8999 18.5C92.1999 14.8 93.9999 11.4 96.4999 8.29999C95.2999 12 93.3999 15.4 90.8999 18.5Z" fill="#263238"/>
<g opacity="0.5">
<path d="M109.9 67.5C107.7 95.5 84.2999 104 84.2999 104C82.5999 108.3 80.2999 119.1 80.2999 119.1H49.1999C49.1999 119.1 46.9999 108.3 45.1999 104C45.1999 104 21.7999 95.6 19.5999 67.5C18.0999 48 31.9999 19.2 64.5999 19.2H64.9999C97.5999 19.2 111.5 48 109.9 67.5Z" fill="#FFC727"/>
</g>
<g opacity="0.7">
<path d="M106.1 67.6C104 93.3 82.6999 101 82.6999 101C81.0999 104.9 79.0999 119.1 79.0999 119.1H50.4999C50.4999 119.1 48.4999 104.9 46.8999 101C46.8999 101 25.4999 93.3 23.4999 67.6C22.0999 49.8 34.7999 23.5 64.5999 23.5H64.8999C94.7999 23.5 107.5 49.8 106.1 67.6Z" fill="#FFC727"/>
</g>
<path d="M57.1999 121.7L48.0999 72.6" stroke="#263238" stroke-width="3" stroke-miterlimit="10"/>
<path d="M72.3999 121.7L81.4999 72.6" stroke="#263238" stroke-width="3" stroke-miterlimit="10"/>
<path d="M48.7998 74.5C48.7998 74.5 50.5998 84.1 54.9998 84.1C59.3998 84.1 63.3998 69.8 57.6998 69.8C51.9998 69.8 57.4998 88.6 64.7998 88.6C72.0998 88.6 76.1998 69.8 71.0998 69.8C65.9998 69.8 67.5998 84.8 74.5998 84.8C78.2998 84.8 80.9998 75.2 80.9998 75.2" stroke="#263238" stroke-miterlimit="10"/>
<path d="M84.2998 119.1H45.2998V140.6H84.2998V119.1Z" fill="#455A64"/>
<path d="M79.9 140.6C77.6 144.7 73.2 148.3 64.8 148.3C56.4 148.3 52 144.7 49.7 140.6H79.9Z" fill="#455A64"/>
<path opacity="0.2" d="M79.9 140.6C79.2 141.8 78.4 142.9 77.4 143.9L50.5 141.8C50.2 141.4 50 141 49.7 140.6H79.9Z" fill="black"/>
<path d="M85.4999 123.2L44.0999 127V125.2L85.4999 121.3V123.2Z" fill="#37474F"/>
<path d="M85.4999 128.9L44.0999 132.7V130.8L85.4999 127V128.9Z" fill="#37474F"/>
<path d="M85.4999 134.6L44.0999 138.4V136.5L85.4999 132.7V134.6Z" fill="#37474F"/>
<g opacity="0.5">
<path d="M29.4998 61C30.8998 61.2 32.7998 53.9 40.6998 45.3C44.1998 41.5 57.5998 36.7 56.6998 32.4C55.6998 28 43.7998 32.5 37.7998 39.5C28.0998 50.6 28.1998 60.7 29.4998 61Z" fill="white"/>
<path d="M99.9 62.5C102.5 62.5 102.5 58.4 99.9 58.4C97.3 58.4 97.3 62.5 99.9 62.5Z" fill="white"/>
<path d="M87.0998 93.3C88.4998 94.4 95.4998 88 98.6998 80.3C101.3 73.9 101.8 65.8 99.9998 65.4C98.1998 64.9 97.0998 76 94.9998 80.1C92.2998 85.1 85.4998 92.1 87.0998 93.3Z" fill="white"/>
</g>
</g>
<defs>
<clipPath id="clip0_702_3020">
<rect width="129.6" height="148.3" fill="white"/>
</clipPath>
</defs>
</svg>
