<svg width="39" height="39" viewBox="0 0 39 39" fill="none" xmlns="http://www.w3.org/2000/svg">
<path d="M19.5 6.5C21.2239 6.5 22.8772 7.18482 24.0962 8.40381C25.3152 9.62279 26 11.2761 26 13C26 14.7239 25.3152 16.3772 24.0962 17.5962C22.8772 18.8152 21.2239 19.5 19.5 19.5C17.7761 19.5 16.1228 18.8152 14.9038 17.5962C13.6848 16.3772 13 14.7239 13 13C13 11.2761 13.6848 9.62279 14.9038 8.40381C16.1228 7.18482 17.7761 6.5 19.5 6.5ZM19.5 9.75C18.638 9.75 17.8114 10.0924 17.2019 10.7019C16.5924 11.3114 16.25 12.138 16.25 13C16.25 13.862 16.5924 14.6886 17.2019 15.2981C17.8114 15.9076 18.638 16.25 19.5 16.25C20.362 16.25 21.1886 15.9076 21.7981 15.2981C22.4076 14.6886 22.75 13.862 22.75 13C22.75 12.138 22.4076 11.3114 21.7981 10.7019C21.1886 10.0924 20.362 9.75 19.5 9.75ZM19.5 21.125C23.8388 21.125 32.5 23.2862 32.5 27.625V32.5H6.5V27.625C6.5 23.2862 15.1612 21.125 19.5 21.125ZM19.5 24.2125C14.6737 24.2125 9.5875 26.585 9.5875 27.625V29.4125H29.4125V27.625C29.4125 26.585 24.3263 24.2125 19.5 24.2125Z" fill="#02353C"/>
</svg>
