<svg width="247" height="222" viewBox="0 0 247 222" fill="none" xmlns="http://www.w3.org/2000/svg">
<path d="M195.154 1.6026H31.428V221.409H195.154V1.6026Z" fill="white"/>
<path d="M195.812 221.974H30.8633V0.94397H195.812V221.974ZM32.0865 220.75H194.589V2.16721H32.0865V220.75Z" fill="#EBEBEB"/>
<path d="M195.154 1.6026H31.428V13.4586H195.154V1.6026Z" fill="#2EAF7D"/>
<path d="M195.812 14.0232H30.8633V0.94397H195.812V14.0232ZM32.0865 12.8H194.589V2.16721H32.0865V12.8Z" fill="#EBEBEB"/>
<path d="M42.6254 7.53064C42.6254 9.13026 41.308 10.5417 39.6143 10.5417C38.0147 10.5417 36.6033 9.22435 36.6033 7.53064C36.6033 5.93102 37.9206 4.51959 39.6143 4.51959C41.2139 4.61369 42.6254 5.93102 42.6254 7.53064Z" fill="#A6A6A6"/>
<path d="M54.7636 7.53064C54.7636 9.13026 53.4462 10.5417 51.7525 10.5417C50.1529 10.5417 48.7415 9.22435 48.7415 7.53064C48.7415 5.93102 50.0588 4.51959 51.7525 4.51959C53.4462 4.61369 54.7636 5.93102 54.7636 7.53064Z" fill="#EBEBEB"/>
<path d="M66.902 7.53064C66.902 9.13026 65.5846 10.5417 63.8909 10.5417C62.2913 10.5417 60.8799 9.22435 60.8799 7.53064C60.8799 5.93102 62.1972 4.51959 63.8909 4.51959C65.5846 4.61369 66.902 5.93102 66.902 7.53064Z" fill="white"/>
<path d="M51.5642 31.7131C51.7524 31.9013 51.7524 32.2776 51.5642 32.4658C51.4701 32.5599 51.2819 32.654 51.1878 32.654C50.9997 32.654 50.9056 32.5599 50.8115 32.4658L48.365 30.0193C48.365 30.0193 48.365 30.0193 48.365 29.9253C48.365 29.9253 48.365 29.9253 48.365 29.8312C48.365 29.8312 48.365 29.8312 48.365 29.7371C48.365 29.7371 48.365 29.7371 48.365 29.643C48.365 29.643 48.365 29.643 48.365 29.5489C48.365 29.5489 48.365 29.5489 48.365 29.4548C48.365 29.4548 48.365 29.4548 48.365 29.3607V29.2666C48.365 29.2666 48.365 29.2666 48.4591 29.1725L50.9056 26.726C51.0937 26.5378 51.4701 26.5378 51.6583 26.726C51.8465 26.9142 51.8465 27.2906 51.6583 27.4788L49.5882 29.5489L51.5642 31.7131Z" fill="#2EAF7D"/>
<path d="M53.8224 31.9953L55.9866 26.9142C56.0807 26.6319 56.363 26.5378 56.6453 26.6319C56.8334 26.726 57.0216 27.0083 56.9275 27.2905L54.7633 32.3717C54.6693 32.5599 54.4811 32.654 54.2929 32.654C54.1988 32.654 54.1988 32.654 54.1047 32.654C53.8224 32.5599 53.7283 32.2776 53.8224 31.9953Z" fill="#2EAF7D"/>
<path d="M60.9738 30.0193L58.4332 32.5599C58.3391 32.654 58.1509 32.7481 58.0568 32.7481C57.8686 32.7481 57.7745 32.654 57.6804 32.5599C57.4923 32.3717 57.4923 31.9953 57.6804 31.8071L59.7505 29.737L57.6804 27.6669C57.4923 27.4788 57.4923 27.1024 57.6804 26.9142C57.8686 26.726 58.245 26.726 58.4332 26.9142L60.8797 29.3607C60.8797 29.3607 60.8797 29.3607 60.9738 29.4548V29.5488C60.9738 29.5488 60.9738 29.5488 60.9738 29.6429C60.9738 29.6429 60.9738 29.6429 60.9738 29.737C60.9738 29.737 60.9738 29.737 60.9738 29.8311V29.9252C61.0679 29.9252 61.0679 29.9252 60.9738 30.0193C61.0679 29.9252 61.0679 29.9252 60.9738 30.0193Z" fill="#2EAF7D"/>
<path d="M54.0107 42.2518H48.1768V44.2278H54.0107V42.2518Z" fill="#EBEBEB"/>
<path d="M131.639 42.2518H63.8906V44.2278H131.639V42.2518Z" fill="#EBEBEB"/>
<path d="M146.506 42.2518H135.309V44.2278H146.506V42.2518Z" fill="#2EAF7D"/>
<path d="M172.759 68.222H162.502V70.198H172.759V68.222Z" fill="#EBEBEB"/>
<path d="M168.336 42.2518H148.953V44.2278H168.336V42.2518Z" fill="#A6A6A6"/>
<path d="M54.0107 47.427H48.1768V49.403H54.0107V47.427Z" fill="#EBEBEB"/>
<path d="M111.879 47.427H63.8906V49.403H111.879V47.427Z" fill="#A6A6A6"/>
<path d="M158.268 68.222H132.204V70.198H158.268V68.222Z" fill="#A6A6A6"/>
<path d="M109.715 62.9527H63.8906V64.9287H109.715V62.9527Z" fill="#A6A6A6"/>
<path d="M95.9771 52.6022H63.8906V54.5782H95.9771V52.6022Z" fill="#2EAF7D"/>
<path d="M154.222 57.7775H142.836V59.7535H154.222V57.7775Z" fill="#A6A6A6"/>
<path d="M147.353 52.6022H99.741V54.5782H147.353V52.6022Z" fill="#A6A6A6"/>
<path d="M120.724 68.222H63.8906V70.198H120.724V68.222Z" fill="#2EAF7D"/>
<path d="M178.499 47.427H147.729V49.403H178.499V47.427Z" fill="#2EAF7D"/>
<path d="M145.189 47.427H116.866V49.403H145.189V47.427Z" fill="#EBEBEB"/>
<path d="M171.724 52.6022H152.622V54.5782H171.724V52.6022Z" fill="#EBEBEB"/>
<path d="M54.0107 52.6022H48.1768V54.5782H54.0107V52.6022Z" fill="#EBEBEB"/>
<path d="M54.0107 57.7775H48.1768V59.7535H54.0107V57.7775Z" fill="#A6A6A6"/>
<path d="M101.529 57.7775H63.8906V59.7535H101.529V57.7775Z" fill="#EBEBEB"/>
<path d="M101.529 73.3973H63.8906V75.3733H101.529V73.3973Z" fill="#EBEBEB"/>
<path d="M143.401 78.5725H116.866V80.5485H143.401V78.5725Z" fill="#2EAF7D"/>
<path d="M142.366 73.3973H107.363V75.3733H142.366V73.3973Z" fill="#2EAF7D"/>
<path d="M110.468 78.5725H79.981V80.5485H110.468V78.5725Z" fill="#EBEBEB"/>
<path d="M74.8057 78.5725H63.8906V80.5485H74.8057V78.5725Z" fill="#A6A6A6"/>
<path d="M146.506 62.9527H108.774V64.9287H146.506V62.9527Z" fill="#EBEBEB"/>
<path d="M172.947 62.9527H148.953V64.9287H172.947V62.9527Z" fill="#2EAF7D"/>
<path d="M140.108 57.7775H102.375V59.7535H140.108V57.7775Z" fill="#2EAF7D"/>
<path d="M54.0107 62.9527H48.1768V64.9287H54.0107V62.9527Z" fill="#EBEBEB"/>
<path d="M54.0107 68.222H48.1768V70.198H54.0107V68.222Z" fill="#EBEBEB"/>
<path d="M54.0107 73.3973H48.1768V75.3733H54.0107V73.3973Z" fill="#A6A6A6"/>
<path d="M54.0107 78.5725H48.1768V80.5485H54.0107V78.5725Z" fill="#EBEBEB"/>
<path d="M54.0107 82.9009H48.1768V84.8769H54.0107V82.9009Z" fill="#EBEBEB"/>
<path d="M131.639 82.9009H63.8906V84.8769H131.639V82.9009Z" fill="#EBEBEB"/>
<path d="M54.0107 88.0761H48.1768V90.0521H54.0107V88.0761Z" fill="#EBEBEB"/>
<path d="M111.879 88.0761H63.8906V90.0521H111.879V88.0761Z" fill="#A6A6A6"/>
<path d="M95.9771 93.2514H63.8906V95.2274H95.9771V93.2514Z" fill="#2EAF7D"/>
<path d="M150.364 93.2514H102.752V95.2274H150.364V93.2514Z" fill="#A6A6A6"/>
<path d="M178.499 88.0761H147.729V90.0521H178.499V88.0761Z" fill="#2EAF7D"/>
<path d="M145.189 88.0761H116.866V90.0521H145.189V88.0761Z" fill="#EBEBEB"/>
<path d="M171.724 93.2514H152.622V95.2274H171.724V93.2514Z" fill="#EBEBEB"/>
<path d="M54.0107 93.2514H48.1768V95.2274H54.0107V93.2514Z" fill="#EBEBEB"/>
<path d="M172.759 103.508H162.502V105.484H172.759V103.508Z" fill="#EBEBEB"/>
<path d="M158.268 103.508H132.204V105.484H158.268V103.508Z" fill="#A6A6A6"/>
<path d="M109.715 98.3325H63.8906V100.309H109.715V98.3325Z" fill="#A6A6A6"/>
<path d="M120.724 103.508H63.8906V105.484H120.724V103.508Z" fill="#2EAF7D"/>
<path d="M146.506 98.3325H108.774V100.309H146.506V98.3325Z" fill="#EBEBEB"/>
<path d="M172.947 98.3325H148.953V100.309H172.947V98.3325Z" fill="#2EAF7D"/>
<path d="M54.0107 98.3325H48.1768V100.309H54.0107V98.3325Z" fill="#EBEBEB"/>
<path d="M54.0107 103.508H48.1768V105.484H54.0107V103.508Z" fill="#EBEBEB"/>
<path d="M54.0107 123.362H48.1768V125.338H54.0107V123.362Z" fill="#EBEBEB"/>
<path d="M111.879 123.362H63.8906V125.338H111.879V123.362Z" fill="#A6A6A6"/>
<path d="M95.9771 128.631H63.8906V130.607H95.9771V128.631Z" fill="#2EAF7D"/>
<path d="M150.364 128.631H102.752V130.607H150.364V128.631Z" fill="#A6A6A6"/>
<path d="M145.189 123.362H116.866V125.338H145.189V123.362Z" fill="#EBEBEB"/>
<path d="M171.724 128.631H152.622V130.607H171.724V128.631Z" fill="#EBEBEB"/>
<path d="M54.0107 128.631H48.1768V130.607H54.0107V128.631Z" fill="#EBEBEB"/>
<path d="M172.759 154.225H162.502V156.201H172.759V154.225Z" fill="#EBEBEB"/>
<path d="M54.0107 133.43H48.1768V135.406H54.0107V133.43Z" fill="#EBEBEB"/>
<path d="M111.879 133.43H63.8906V135.406H111.879V133.43Z" fill="#A6A6A6"/>
<path d="M158.268 154.225H132.204V156.201H158.268V154.225Z" fill="#A6A6A6"/>
<path d="M109.715 148.956H63.8906V150.932H109.715V148.956Z" fill="#A6A6A6"/>
<path d="M95.9771 138.605H63.8906V140.581H95.9771V138.605Z" fill="#2EAF7D"/>
<path d="M154.222 143.781H142.836V145.757H154.222V143.781Z" fill="#A6A6A6"/>
<path d="M150.364 138.605H102.752V140.581H150.364V138.605Z" fill="#A6A6A6"/>
<path d="M120.724 154.225H63.8906V156.201H120.724V154.225Z" fill="#2EAF7D"/>
<path d="M178.499 133.43H147.729V135.406H178.499V133.43Z" fill="#2EAF7D"/>
<path d="M145.189 133.43H116.866V135.406H145.189V133.43Z" fill="#EBEBEB"/>
<path d="M171.724 138.605H152.622V140.581H171.724V138.605Z" fill="#EBEBEB"/>
<path d="M54.0107 138.605H48.1768V140.581H54.0107V138.605Z" fill="#EBEBEB"/>
<path d="M54.0107 143.781H48.1768V145.757H54.0107V143.781Z" fill="#A6A6A6"/>
<path d="M101.529 143.781H63.8906V145.757H101.529V143.781Z" fill="#EBEBEB"/>
<path d="M101.529 159.4H63.8906V161.376H101.529V159.4Z" fill="#EBEBEB"/>
<path d="M139.826 164.576H113.291V166.552H139.826V164.576Z" fill="#2EAF7D"/>
<path d="M142.366 159.4H107.363V161.376H142.366V159.4Z" fill="#2EAF7D"/>
<path d="M112.444 164.576H79.6045V166.552H112.444V164.576Z" fill="#EBEBEB"/>
<path d="M74.8057 164.576H63.8906V166.552H74.8057V164.576Z" fill="#A6A6A6"/>
<path d="M146.506 148.956H108.774V150.932H146.506V148.956Z" fill="#EBEBEB"/>
<path d="M172.947 148.956H148.953V150.932H172.947V148.956Z" fill="#2EAF7D"/>
<path d="M140.108 143.781H102.375V145.757H140.108V143.781Z" fill="#2EAF7D"/>
<path d="M54.0107 148.956H48.1768V150.932H54.0107V148.956Z" fill="#EBEBEB"/>
<path d="M54.0107 154.225H48.1768V156.201H54.0107V154.225Z" fill="#EBEBEB"/>
<path d="M54.0107 159.4H48.1768V161.376H54.0107V159.4Z" fill="#A6A6A6"/>
<path d="M54.0107 164.576H48.1768V166.552H54.0107V164.576Z" fill="#EBEBEB"/>
<path d="M54.0107 168.904H48.1768V170.88H54.0107V168.904Z" fill="#EBEBEB"/>
<path d="M131.639 168.904H63.8906V170.88H131.639V168.904Z" fill="#EBEBEB"/>
<path d="M54.0107 174.079H48.1768V176.055H54.0107V174.079Z" fill="#EBEBEB"/>
<path d="M111.879 174.079H63.8906V176.055H111.879V174.079Z" fill="#A6A6A6"/>
<path d="M95.9771 179.254H63.8906V181.23H95.9771V179.254Z" fill="#2EAF7D"/>
<path d="M150.364 179.254H102.752V181.23H150.364V179.254Z" fill="#A6A6A6"/>
<path d="M178.499 174.079H147.729V176.055H178.499V174.079Z" fill="#2EAF7D"/>
<path d="M145.189 174.079H116.866V176.055H145.189V174.079Z" fill="#EBEBEB"/>
<path d="M171.724 179.254H152.622V181.23H171.724V179.254Z" fill="#EBEBEB"/>
<path d="M54.0107 179.254H48.1768V181.23H54.0107V179.254Z" fill="#EBEBEB"/>
<path d="M172.759 189.511H162.502V191.487H172.759V189.511Z" fill="#EBEBEB"/>
<path d="M158.268 189.511H132.204V191.487H158.268V189.511Z" fill="#A6A6A6"/>
<path d="M109.715 184.336H63.8906V186.312H109.715V184.336Z" fill="#A6A6A6"/>
<path d="M120.724 189.511H63.8906V191.487H120.724V189.511Z" fill="#2EAF7D"/>
<path d="M101.529 194.686H63.8906V196.662H101.529V194.686Z" fill="#EBEBEB"/>
<path d="M108.774 199.861H80.1689V201.837H108.774V199.861Z" fill="#2EAF7D"/>
<path d="M142.366 194.686H107.363V196.662H142.366V194.686Z" fill="#2EAF7D"/>
<path d="M143.401 199.861H112.914V201.837H143.401V199.861Z" fill="#EBEBEB"/>
<path d="M74.8057 199.861H63.8906V201.837H74.8057V199.861Z" fill="#A6A6A6"/>
<path d="M146.506 184.336H108.774V186.312H146.506V184.336Z" fill="#EBEBEB"/>
<path d="M172.947 184.336H148.953V186.312H172.947V184.336Z" fill="#2EAF7D"/>
<path d="M54.0107 184.336H48.1768V186.312H54.0107V184.336Z" fill="#EBEBEB"/>
<path d="M54.0107 189.511H48.1768V191.487H54.0107V189.511Z" fill="#EBEBEB"/>
<path d="M54.0107 194.686H48.1768V196.662H54.0107V194.686Z" fill="#A6A6A6"/>
<path d="M54.0107 199.861H48.1768V201.837H54.0107V199.861Z" fill="#EBEBEB"/>
<path opacity="0.1" d="M73.0179 48.1798H3.38745V79.5135H73.0179V48.1798Z" fill="black"/>
<path d="M69.6305 44.8864H0V76.2202H69.6305V44.8864Z" fill="#2EAF7D"/>
<path d="M15.4318 63.235C15.8081 64.27 16.7491 65.0228 17.8782 65.0228C19.2897 65.0228 20.5129 63.8937 20.5129 62.4822V54.9546C20.5129 54.39 20.9834 53.9196 21.548 53.9196C22.1125 53.9196 22.583 54.39 22.583 54.9546V62.4822C22.583 65.0228 20.5129 67.187 17.8782 67.187C15.8081 67.187 14.0203 65.8697 13.4558 63.9877C13.2676 63.4232 13.5499 62.8586 14.1144 62.6704C14.679 62.3881 15.2436 62.6704 15.4318 63.235Z" fill="white"/>
<path d="M34.4387 62.3881V66.0579C34.4387 66.6224 33.9682 67.0929 33.4036 67.0929C32.9331 67.0929 32.5568 66.7165 32.4627 66.246C31.7099 66.7165 30.863 67.0929 29.9221 67.0929C28.6048 67.0929 27.5697 66.5283 26.7229 65.6815C25.876 64.8346 25.4055 63.6114 25.4055 62.3881C25.4055 61.0708 25.876 59.9417 26.7229 59.0948C27.5697 58.248 28.6048 57.6834 29.9221 57.6834C30.863 57.6834 31.7099 57.9657 32.4627 58.5302C32.5568 58.0598 32.9331 57.6834 33.4036 57.6834C33.9682 57.6834 34.4387 58.1539 34.4387 58.7184V62.3881ZM32.3686 62.3881C32.3686 61.6354 32.0863 60.8826 31.6158 60.4121C31.1453 59.9417 30.4867 59.6594 29.828 59.6594C29.1693 59.6594 28.5107 59.9417 28.0402 60.4121C27.5697 60.8826 27.2874 61.5413 27.2874 62.3881C27.2874 63.1409 27.5697 63.7996 28.0402 64.3641C28.5107 64.8346 29.0752 65.1169 29.828 65.1169C30.4867 65.1169 31.1453 64.8346 31.6158 64.3641C32.0863 63.8937 32.3686 63.1409 32.3686 62.3881Z" fill="white"/>
<path d="M45.1658 59.1889L42.0606 66.5283C42.0606 66.6224 41.9665 66.6224 41.9665 66.6224L41.8724 66.7165C41.8724 66.8106 41.7783 66.8106 41.7783 66.8106L41.6843 66.9047C41.5902 66.9047 41.5902 66.9047 41.4961 66.9047C41.402 66.9047 41.402 66.9047 41.3079 66.9047C41.3079 66.9047 41.2138 66.9047 41.1197 66.9047C41.0256 66.9047 41.0256 66.9047 40.9315 66.9047C40.8374 66.9047 40.8374 66.8106 40.7433 66.8106L40.6492 66.7165L40.5551 66.6224L40.461 66.5283L37.45 59.1889C37.2618 58.7184 37.45 58.1539 38.0145 57.8716C38.485 57.6834 39.0496 57.8716 39.2378 58.4361L41.402 63.6114L43.5662 58.4361C43.7543 57.9657 44.3189 57.6834 44.7894 57.8716C45.1658 58.1539 45.4481 58.6243 45.1658 59.1889Z" fill="white"/>
<path d="M56.269 62.3881V66.0579C56.269 66.6224 55.7985 67.0929 55.2339 67.0929C54.7635 67.0929 54.3871 66.7165 54.293 66.246C53.5402 66.8106 52.6934 67.0929 51.7524 67.0929C50.4351 67.0929 49.4 66.5283 48.5532 65.6815C47.7063 64.8346 47.2358 63.6114 47.2358 62.3881C47.2358 61.0708 47.7063 59.9417 48.5532 59.0948C49.4 58.248 50.4351 57.6834 51.7524 57.6834C52.6934 57.6834 53.5402 57.9657 54.293 58.5302C54.3871 58.0598 54.7635 57.6834 55.2339 57.6834C55.7985 57.6834 56.269 58.1539 56.269 58.7184V62.3881ZM54.1989 62.3881C54.1989 61.6354 53.9166 60.8826 53.4461 60.4121C52.9756 59.9417 52.317 59.6594 51.6583 59.6594C50.9997 59.6594 50.341 59.9417 49.8705 60.4121C49.4 60.8826 49.1177 61.5413 49.1177 62.3881C49.1177 63.1409 49.4 63.7996 49.8705 64.3641C50.341 64.8346 50.9056 65.1169 51.6583 65.1169C52.317 65.1169 52.9756 64.8346 53.4461 64.3641C53.9166 63.8937 54.1989 63.1409 54.1989 62.3881Z" fill="white"/>
<path opacity="0.1" d="M247 149.897H171.065V181.23H247V149.897Z" fill="black"/>
<path d="M243.707 146.603H167.772V177.937H243.707V146.603Z" fill="#2EAF7D"/>
<path d="M182.827 162.129H180.757V165.799C180.757 166.269 180.381 166.74 179.816 166.74C179.346 166.74 178.875 166.363 178.875 165.799V155.919C178.875 155.354 179.252 154.978 179.816 154.978H182.827C184.803 154.978 186.403 156.577 186.403 158.553C186.403 160.529 184.803 162.129 182.827 162.129ZM180.757 160.247H182.827C183.768 160.247 184.521 159.494 184.521 158.553C184.521 157.612 183.768 156.86 182.827 156.86H180.757V160.247Z" fill="white"/>
<path d="M194.965 159.212V163.164V165.516C194.965 167.775 193.178 169.468 191.013 169.468C190.449 169.468 189.79 169.28 189.32 169.092C188.849 168.904 188.661 168.339 188.849 167.869C189.037 167.492 189.602 167.304 190.073 167.492C190.355 167.681 190.731 167.681 191.013 167.681C191.954 167.681 192.801 167.022 193.084 166.175C192.613 166.457 192.049 166.552 191.484 166.552C189.602 166.552 188.002 164.952 188.002 163.07V159.118C188.002 158.648 188.379 158.271 188.849 158.271C189.414 158.271 189.696 158.648 189.696 159.118V163.07C189.696 164.011 190.449 164.764 191.39 164.764C192.331 164.764 193.084 164.011 193.084 163.07V159.118C193.084 158.648 193.46 158.271 193.93 158.271C194.589 158.365 194.965 158.742 194.965 159.212Z" fill="white"/>
<path d="M202.305 159.212C202.305 159.683 201.834 160.153 201.364 160.153H200.987V164.858C201.552 164.858 201.928 165.234 201.928 165.799C201.928 166.363 201.552 166.74 200.987 166.74C199.952 166.74 199.105 165.893 199.105 164.858V160.153H198.541C197.976 160.153 197.6 159.777 197.6 159.212C197.6 158.648 197.976 158.271 198.541 158.271H199.011V155.825C199.011 155.26 199.388 154.884 199.952 154.884C200.517 154.884 200.893 155.26 200.893 155.825V158.271H201.27C201.834 158.365 202.305 158.742 202.305 159.212Z" fill="white"/>
<path d="M206.727 165.799C206.727 166.363 206.351 166.74 205.786 166.74C205.41 166.74 205.034 166.457 204.939 166.081C204.939 165.987 204.939 165.893 204.939 165.893V156.013C204.939 155.448 205.316 155.072 205.88 155.072C206.445 155.072 206.821 155.448 206.821 156.013V158.93C207.386 158.648 207.95 158.459 208.609 158.459C210.585 158.459 212.279 160.153 212.279 162.129V165.893C212.279 166.457 211.903 166.834 211.338 166.834C210.773 166.834 210.397 166.457 210.397 165.893V162.129C210.397 161.188 209.55 160.341 208.609 160.341C207.668 160.341 206.821 161.188 206.821 162.129V165.799H206.727Z" fill="white"/>
<path d="M215.855 165.422C215.102 164.67 214.726 163.635 214.726 162.505C214.726 161.376 215.196 160.341 215.855 159.589C216.607 158.836 217.548 158.365 218.772 158.365C219.901 158.365 220.842 158.836 221.595 159.589C222.347 160.435 222.724 161.376 222.724 162.505C222.724 163.635 222.347 164.67 221.595 165.422C220.936 166.175 219.901 166.646 218.772 166.646C217.548 166.74 216.607 166.269 215.855 165.422ZM216.513 162.505C216.513 163.258 216.702 163.823 217.078 164.293C217.454 164.67 218.019 164.952 218.678 164.952C219.242 164.952 219.807 164.764 220.183 164.293C220.559 163.823 220.842 163.258 220.842 162.505C220.842 161.847 220.654 161.188 220.183 160.812C219.807 160.435 219.242 160.153 218.678 160.153C218.019 160.153 217.454 160.435 217.078 160.812C216.796 161.188 216.513 161.847 216.513 162.505Z" fill="white"/>
<path d="M232.509 161.753V165.705C232.509 166.175 232.133 166.552 231.663 166.552C231.192 166.552 230.816 166.175 230.816 165.705V161.753C230.816 160.812 230.063 160.059 229.122 160.059C228.181 160.059 227.428 160.812 227.428 161.753V165.705C227.428 165.799 227.428 165.799 227.428 165.893C227.334 166.269 226.958 166.646 226.581 166.646C226.111 166.646 225.735 166.269 225.735 165.799V161.847V159.212C225.735 158.742 226.111 158.365 226.581 158.365C226.958 158.365 227.24 158.553 227.428 158.93C227.899 158.648 228.557 158.365 229.216 158.365C231.004 158.365 232.509 159.871 232.509 161.753Z" fill="white"/>
</svg>
