<svg width="136" height="94" viewBox="0 0 136 94" fill="none" xmlns="http://www.w3.org/2000/svg">
<rect width="16" height="16" fill="#CBE7DD"/>
<rect x="30" width="16" height="16" fill="#CBE7DD"/>
<rect x="60" width="16" height="16" fill="#CBE7DD"/>
<rect x="90" width="16" height="16" fill="#CBE7DD"/>
<rect x="120" width="16" height="16" fill="#CBE7DD"/>
<rect y="26" width="16" height="16" fill="#CBE7DD"/>
<rect x="30" y="26" width="16" height="16" fill="#CBE7DD"/>
<rect x="60" y="26" width="16" height="16" fill="#CBE7DD"/>
<rect x="90" y="26" width="16" height="16" fill="#CBE7DD"/>
<rect x="120" y="26" width="16" height="16" fill="#CBE7DD"/>
<rect y="52" width="16" height="16" fill="#CBE7DD"/>
<rect x="30" y="52" width="16" height="16" fill="#CBE7DD"/>
<rect x="60" y="52" width="16" height="16" fill="#CBE7DD"/>
<rect x="90" y="52" width="16" height="16" fill="#CBE7DD"/>
<rect x="120" y="52" width="16" height="16" fill="#CBE7DD"/>
<rect y="78" width="16" height="16" fill="#CBE7DD"/>
<rect x="30" y="78" width="16" height="16" fill="#CBE7DD"/>
<rect x="60" y="78" width="16" height="16" fill="#CBE7DD"/>
<rect x="90" y="78" width="16" height="16" fill="#CBE7DD"/>
<rect x="120" y="78" width="16" height="16" fill="#CBE7DD"/>
</svg>
