<svg width="139" height="108" viewBox="0 0 139 108" fill="none" xmlns="http://www.w3.org/2000/svg">
<path d="M91.3244 14.3137C89.9392 17.8435 89.1661 21.4705 88.9406 25.2594C88.8762 25.2594 88.844 25.2594 88.8117 25.2594C85.6871 25.2594 82.5624 25.2594 79.4377 25.2594C79.4055 25.2594 79.3733 25.2594 79.3088 25.2594V25.0003C79.3411 24.7412 79.3733 24.5146 79.3733 24.2555C79.5021 22.9601 79.6954 21.6972 80.0175 20.4342C80.5007 18.3616 81.2416 16.3862 82.1436 14.4756C82.208 14.3784 82.2725 14.346 82.3691 14.346C85.3005 14.346 88.1997 14.346 91.1311 14.346H91.3244V14.3137Z" fill="#CBE7DD"/>
<path d="M91.0344 38.7311H90.8734C87.9742 38.7311 85.075 38.7311 82.1758 38.7311C82.0469 38.7311 82.0147 38.6987 81.9503 38.6015C80.9195 36.4642 80.2108 34.1973 79.7598 31.8657C79.5343 30.7323 79.4055 29.5988 79.3088 28.4654C79.3088 28.433 79.3088 28.4006 79.2766 28.3359V28.0768C79.3088 28.0768 79.3732 28.0768 79.4055 28.0768C82.4979 28.0768 85.6226 28.0768 88.7151 28.0768C88.8761 28.0768 88.8761 28.0768 88.8761 28.2387C88.9406 29.0159 88.9728 29.7931 89.0694 30.5703C89.1983 31.8009 89.3916 33.0315 89.6493 34.2297C89.9714 35.7194 90.3902 37.1766 90.9056 38.5691C91.0022 38.6339 91.0344 38.6663 91.0344 38.7311Z" fill="#CBE7DD"/>
<path d="M128.241 41.5484C128.209 41.6132 128.176 41.6456 128.176 41.6779C127.435 42.8438 126.566 43.9124 125.664 44.9487C124.568 46.2117 123.312 47.3451 121.991 48.349C120.671 49.3529 119.286 50.2273 117.804 50.9721C116.386 51.6845 114.905 52.2674 113.39 52.6884C112.166 53.0447 110.942 53.3037 109.718 53.4656C109.589 53.498 109.46 53.498 109.364 53.5304H109.138C109.074 53.498 109.009 53.4656 108.945 53.4009C109.042 53.3361 109.106 53.2713 109.171 53.239C111.876 51.3607 114.228 49.1262 116.161 46.4384C117.256 44.9487 118.19 43.3619 118.996 41.6779C119.06 41.5808 119.092 41.5484 119.221 41.5484C122.185 41.5484 125.148 41.5484 128.112 41.5484H128.241Z" fill="#CBE7DD"/>
<path d="M119.382 25.227H106.948V14.3137C107.012 14.3137 107.044 14.3137 107.077 14.3137C110.266 14.3137 113.455 14.3137 116.644 14.3137C116.741 14.3137 116.805 14.346 116.837 14.4432C117.739 16.5158 118.383 18.6207 118.802 20.8552C119.028 21.9886 119.189 23.1544 119.285 24.3203C119.35 24.6117 119.382 24.9355 119.382 25.227Z" fill="#CBE7DD"/>
<path d="M119.318 28.1415C119.318 28.4006 119.318 28.6597 119.285 28.9188C119.221 29.534 119.189 30.1493 119.092 30.7322C118.963 31.5742 118.834 32.4162 118.673 33.2258C118.319 35.0393 117.771 36.8204 117.063 38.5691C117.03 38.6987 116.966 38.731 116.837 38.731C113.584 38.731 110.298 38.731 107.044 38.731H106.883V28.1415H119.318Z" fill="#CBE7DD"/>
<path d="M104.177 14.3784V25.3241H92.033C92.0652 25.0327 92.0652 24.7736 92.0974 24.5145C92.1618 23.8993 92.194 23.284 92.2907 22.6687C92.4517 21.7295 92.6128 20.8228 92.8061 19.8837C93.1926 18.0378 93.8047 16.2243 94.5456 14.508C94.5778 14.4108 94.6422 14.3784 94.7389 14.3784C97.8313 14.3784 100.924 14.3784 103.984 14.3784H104.177Z" fill="#CBE7DD"/>
<path d="M104.177 28.3035C104.177 31.7361 104.177 35.1688 104.177 38.5691V38.731H104.016C100.827 38.731 97.6703 38.731 94.4812 38.731C94.3523 38.731 94.3201 38.6987 94.2557 38.6015C93.5148 36.8204 92.9671 34.9745 92.6128 33.0963C92.4195 32.1247 92.2907 31.1532 92.1618 30.1493C92.0652 29.5017 92.0652 28.854 92.033 28.2063C92.033 28.1739 92.033 28.1739 92.033 28.1415C92.0652 28.1415 92.1296 28.1415 92.1618 28.1415C96.124 28.1415 100.054 28.1415 104.016 28.1415C104.145 28.1415 104.177 28.1739 104.177 28.3035Z" fill="#CBE7DD"/>
<path d="M132.59 25.3242H122.41C122.185 21.5352 121.412 17.8759 120.026 14.3137H120.187C123.312 14.3137 126.405 14.3137 129.529 14.3137C129.626 14.3137 129.69 14.346 129.755 14.4432C130.85 16.6129 131.623 18.9122 132.106 21.2762C132.364 22.5391 132.525 23.8345 132.59 25.1299C132.59 25.1946 132.59 25.2594 132.59 25.3242Z" fill="#CBE7DD"/>
<path d="M132.589 28.0768C132.589 28.3359 132.557 28.5625 132.557 28.7892C132.493 29.7284 132.396 30.6351 132.235 31.5419C131.849 33.6792 131.236 35.7194 130.367 37.6948C130.238 38.0186 130.077 38.3101 129.948 38.6339C129.916 38.6987 129.883 38.7311 129.787 38.7311C126.662 38.7311 123.537 38.7311 120.445 38.7311C120.413 38.7311 120.381 38.7311 120.348 38.7311C120.477 38.4072 120.574 38.0834 120.671 37.7595C121.218 36.1404 121.637 34.4564 121.927 32.7724C122.152 31.5419 122.281 30.3113 122.378 29.0483C122.41 28.7568 122.41 28.4654 122.442 28.1739C122.442 28.1092 122.474 28.0444 122.539 28.0768C122.571 28.0768 122.603 28.0768 122.636 28.0768H132.589Z" fill="#CBE7DD"/>
<path d="M127.983 11.5286C127.983 11.5286 127.983 11.561 127.951 11.561H127.822C124.858 11.561 121.895 11.561 118.899 11.561C118.802 11.561 118.738 11.5286 118.673 11.4315C117.482 9.03508 116.032 6.83298 114.26 4.85757C113.229 3.69175 112.102 2.65547 110.878 1.71634C110.266 1.23058 109.654 0.809595 109.009 0.356222C108.977 0.323838 108.945 0.323838 108.913 0.291454C108.945 0.25907 109.009 0.226687 109.042 0.194303C109.009 0.129535 109.009 0.0647676 108.977 0C112.134 0.356222 115.162 1.26297 117.997 2.72024C122.056 4.82519 125.438 7.70735 127.983 11.5286Z" fill="#CBE7DD"/>
<path d="M102.438 53.4333C102.341 53.4656 102.245 53.498 102.18 53.4657C101.214 53.3361 100.247 53.1418 99.2809 52.8827C97.477 52.4294 95.7697 51.7817 94.1268 50.9721C92.2262 50.033 90.4867 48.8671 88.8438 47.507C87.6841 46.5355 86.6211 45.4992 85.6869 44.3334C84.9782 43.4591 84.3018 42.5523 83.7219 41.5808C83.7219 41.5484 83.6897 41.5484 83.6897 41.4836H83.8508C86.6211 41.4836 89.3914 41.4836 92.1296 41.4836C92.2262 41.4836 92.2906 41.516 92.3228 41.6132C93.1926 43.3619 94.1912 45.0459 95.3831 46.6003C96.4461 48.0252 97.6702 49.3529 98.9588 50.5835C100.022 51.5874 101.181 52.5265 102.406 53.3685C102.373 53.3685 102.406 53.3685 102.438 53.4333Z" fill="#CBE7DD"/>
<path d="M102.341 0.259087C101.955 0.550541 101.504 0.841996 101.085 1.19822C99.6353 2.33165 98.3146 3.59462 97.0583 4.95474C95.3832 6.80062 93.998 8.80841 92.8383 11.0105C92.7739 11.14 92.7095 11.302 92.6129 11.4315C92.5806 11.4639 92.5162 11.4963 92.484 11.5287C92.3229 11.5287 92.1941 11.5287 92.033 11.5287H83.9153C88.4251 5.11666 94.5134 1.26298 102.212 0.097168C102.18 0.129552 102.18 0.161936 102.148 0.194319C102.245 0.194319 102.277 0.226703 102.341 0.259087Z" fill="#CBE7DD"/>
<path d="M115.678 41.5484C114.518 43.5886 113.165 45.4345 111.586 47.1185C110.169 48.6081 108.623 49.9682 106.883 51.1017V41.5161H115.678V41.5484Z" fill="#CBE7DD"/>
<path d="M104.177 41.5808V50.9721C100.602 48.5109 97.8314 45.3697 95.7375 41.5808H104.177Z" fill="#CBE7DD"/>
<path d="M115.42 11.4963H106.98V2.52594C108.719 3.65937 110.298 4.98711 111.715 6.50915C113.1 8.03119 114.325 9.71515 115.42 11.4963Z" fill="#CBE7DD"/>
<path d="M104.178 2.81738V11.561H96.0598C98.1215 8.03118 100.731 5.08425 104.178 2.81738Z" fill="#CBE7DD"/>
<path d="M3.51124 103.142C3.51124 102.786 3.57567 101.782 3.57567 101.361C3.57567 99.5478 2.9314 98.7382 1.25632 98.6735C0.483198 98.6411 0 98.1553 0 97.4753C0 96.7952 0.483198 96.3418 1.25632 96.2771C2.9314 96.2123 3.57567 95.4027 3.57567 93.5892C3.57567 93.1682 3.51124 92.1643 3.51124 91.8081C3.51124 89.4117 4.50985 87.8573 8.34322 87.0153C9.11634 86.8534 9.69618 87.3067 9.69618 88.0192C9.69618 88.6021 9.30962 88.9259 9.0197 89.0231C6.63592 89.7679 6.28158 90.5451 6.28158 92.2291C6.28158 92.7148 6.346 93.5568 6.346 94.075C6.346 96.018 5.41182 96.9571 3.76895 97.4753C5.41182 98.0258 6.346 98.9325 6.346 100.876C6.346 101.394 6.28158 102.203 6.28158 102.721C6.28158 104.405 6.63592 105.183 9.0197 105.927C9.30962 106.025 9.69618 106.348 9.69618 106.931C9.69618 107.644 9.11634 108.13 8.34322 107.935C4.54206 107.093 3.51124 105.571 3.51124 103.142Z" fill="#CBE7DD"/>
<path d="M19.328 91.8081C19.328 92.1643 19.2636 93.1682 19.2636 93.5892C19.2636 95.4351 19.9401 96.2123 21.6151 96.2771C22.3883 96.3419 22.8392 96.7952 22.8392 97.4753C22.8392 98.1554 22.356 98.6087 21.6151 98.6735C19.9401 98.7383 19.2636 99.5479 19.2636 101.361C19.2636 101.782 19.328 102.786 19.328 103.142C19.328 105.571 18.3294 107.126 14.496 107.968C13.7229 108.13 13.1431 107.676 13.1431 106.964C13.1431 106.381 13.5296 106.057 13.8518 105.96C16.2355 105.215 16.5577 104.438 16.5577 102.754C16.5577 102.268 16.4932 101.426 16.4932 100.908C16.4932 98.9649 17.4274 98.0258 19.0703 97.5077C17.4274 96.9572 16.4932 96.0504 16.4932 94.1074C16.4932 93.5892 16.5577 92.7796 16.5577 92.2615C16.5577 90.5775 16.2033 89.8003 13.8518 89.0555C13.5296 88.9583 13.1431 88.6345 13.1431 88.0516C13.1431 87.3392 13.7229 86.8534 14.496 87.0477C18.3294 87.8573 19.328 89.4117 19.328 91.8081Z" fill="#CBE7DD"/>
<path d="M117.965 67.6498C118.448 68.1355 118.448 68.9127 117.965 69.3985C117.707 69.6252 117.417 69.7547 117.127 69.7547C116.805 69.7547 116.483 69.6252 116.257 69.3985L110.878 63.8932C110.813 63.8609 110.813 63.8285 110.781 63.7637C110.749 63.7313 110.717 63.7313 110.717 63.7313C110.684 63.6666 110.684 63.6342 110.652 63.5694C110.62 63.537 110.588 63.5046 110.588 63.5046C110.556 63.4723 110.556 63.4075 110.556 63.3751C110.556 63.3103 110.523 63.3103 110.523 63.278C110.523 63.2132 110.523 63.1808 110.523 63.1484C110.523 63.116 110.491 63.0837 110.491 63.0189C110.491 62.9865 110.523 62.9541 110.523 62.9217C110.523 62.8893 110.523 62.8246 110.523 62.7922C110.523 62.7598 110.556 62.7274 110.556 62.7274C110.588 62.6627 110.588 62.6303 110.588 62.5655C110.588 62.5331 110.62 62.5331 110.62 62.5331C110.652 62.4684 110.684 62.4036 110.717 62.3712C110.717 62.3712 110.717 62.3388 110.749 62.3388C110.781 62.3064 110.813 62.2417 110.878 62.2093L116.257 56.704C116.741 56.2507 117.514 56.2507 117.997 56.704C118.48 57.1898 118.48 57.967 117.997 58.4528L113.39 63.0513L117.965 67.6498Z" fill="#CBE7DD"/>
<path d="M122.861 68.2975L127.564 57.0603C127.79 56.5098 128.402 56.2831 128.982 56.5098C129.497 56.7364 129.755 57.3517 129.529 57.8699L124.826 69.1394C124.665 69.5604 124.246 69.7871 123.86 69.7871C123.731 69.7871 123.602 69.7547 123.473 69.7224C122.861 69.4633 122.603 68.8156 122.861 68.2975Z" fill="#CBE7DD"/>
<path d="M138.774 63.7313C138.71 63.7961 138.678 63.8609 138.613 63.8932L133.234 69.3985C133.008 69.6252 132.686 69.7547 132.364 69.7547C132.042 69.7547 131.752 69.6252 131.494 69.3985C131.011 68.9127 131.011 68.1679 131.494 67.6498L136.036 63.0513L131.494 58.4528C131.011 57.967 131.011 57.1898 131.494 56.704C131.945 56.2507 132.751 56.2507 133.234 56.704L138.613 62.2093C138.678 62.2417 138.71 62.3064 138.742 62.3388C138.774 62.3388 138.774 62.3712 138.774 62.3712C138.807 62.436 138.839 62.5007 138.871 62.5331C138.871 62.5655 138.903 62.5655 138.903 62.5655C138.935 62.6303 138.935 62.6627 138.968 62.7274C138.968 62.7598 139 62.7598 139 62.7922C139 62.8246 139 62.8893 139 62.9217C139 62.9541 139.032 62.9865 139.032 63.0189C139.032 63.0513 139 63.0836 139 63.116C139 63.1808 139 63.2132 139 63.278C139 63.3103 138.968 63.3103 138.968 63.3103C138.935 63.3751 138.935 63.4399 138.903 63.4723C138.903 63.5046 138.871 63.5046 138.871 63.537C138.871 63.6018 138.807 63.6666 138.774 63.7313Z" fill="#CBE7DD"/>
</svg>
