<svg width="160" height="36" viewBox="0 0 160 36" fill="none" xmlns="http://www.w3.org/2000/svg">
<path d="M1.47073 1.59367L18.3933 35.4969L25.1314 35.6032L32.5154 22.127L32.3008 19.4851L30.3048 19.6496L32.6799 15.3869L36.3408 15.1722L40.8202 7.03392L43.4601 6.81927L45.3979 1.48535H36.4492L22.7623 29.4027L21.7934 29.5692L8.04436 1.59367H1.47073Z" fill="url(#paint0_radial_694_2337)"/>
<path d="M11.7374 6.49831C15.1634 4.59404 18.9336 3.38946 22.829 2.95452C26.7245 2.51959 30.6675 2.86298 34.4291 3.96475L35.6949 1.32086C27.1101 -0.981522 17.9943 -0.258295 9.87985 3.36897C10.5017 4.4161 11.1155 5.45921 11.7374 6.49831Z" fill="#02353C"/>
<path d="M27.7211 32.9051L29.1474 30.0747L33.3259 29.3525L33.3519 18.6485L31.7371 18.7067L33.0791 16.0087H38.4191L38.393 31.2903L27.7211 32.9051Z" fill="#02353C"/>
<path d="M22.1926 27.7056L24.7262 22.6646L24.5677 10.4862L30.7682 10.4601L32.383 7.1984L11.9841 7.11615L13.5408 10.5103H19.6089L19.7674 22.9635L22.1926 27.7056Z" fill="url(#paint1_radial_694_2337)"/>
<path d="M3.07152 7.56146L5.90398 12.9395C5.56449 14.4529 5.48311 16.0128 5.66326 17.5533C5.83349 19.0353 6.23983 20.4805 6.86685 21.8341C7.47102 23.2235 8.36391 24.4686 9.48622 25.4864C10.6085 26.5043 11.9346 27.2717 13.3763 27.7377L15.2459 31.6113C11.4526 31.3467 7.84769 29.8578 4.9732 27.3686C3.57442 26.1208 2.39818 24.644 1.49482 23.0016C0.496011 20.9508 -0.0154449 18.6969 0.000355244 16.4159C0.0580223 13.2132 1.13367 10.112 3.07152 7.56146Z" fill="#02353C"/>
<path d="M57.5722 18.3898L50.9805 3.17639H54.8059L60.5431 16.6526H58.3044L64.1218 3.17639H67.6222L61.0446 18.3898H57.5722Z" fill="#02353C"/>
<path d="M73.584 18.5723C72.3716 18.5998 71.1708 18.3313 70.0856 17.79C69.1174 17.3066 68.3069 16.5575 67.7488 15.6303C67.1907 14.7031 66.9082 13.6362 66.9342 12.5544C66.9152 11.4663 67.1888 10.3932 67.7265 9.4471C68.2504 8.53961 69.0184 7.79734 69.9432 7.3047C70.9308 6.78105 72.035 6.51604 73.1527 6.5344C74.2306 6.51834 75.2953 6.77211 76.25 7.2726C77.1554 7.7486 77.9114 8.46578 78.4345 9.34479C78.9922 10.3314 79.2696 11.4516 79.2369 12.5845C79.2369 12.7149 79.2369 12.8633 79.2148 13.0298C79.1928 13.1963 79.1867 13.3528 79.1727 13.4972H69.6723V11.5233H77.3874L76.0614 12.109C76.0891 11.5587 75.9692 11.0109 75.7144 10.5223C75.4777 10.0838 75.1243 9.71926 74.6933 9.46916C74.229 9.2083 73.7032 9.07668 73.1708 9.08802C72.6359 9.07748 72.1077 9.209 71.6402 9.46916C71.2026 9.71884 70.8456 10.0884 70.6111 10.5343C70.3528 11.0341 70.2245 11.5908 70.238 12.1532V12.6747C70.2227 13.269 70.3727 13.8558 70.6713 14.3698C70.9583 14.844 71.3763 15.2251 71.8749 15.4671C72.4452 15.7352 73.0704 15.8657 73.7004 15.8482C74.2512 15.8565 74.7985 15.7599 75.3132 15.5634C75.7947 15.3669 76.2335 15.0787 76.605 14.7148L78.4104 16.6727C77.8567 17.2938 77.1638 17.775 76.3884 18.0769C75.494 18.4204 74.5419 18.5886 73.584 18.5723Z" fill="#02353C"/>
<path d="M81.4956 18.3898V6.69686H84.7333V10.0228L84.2779 9.04387C84.6028 8.24358 85.1937 7.57975 85.9509 7.16426C86.8167 6.71375 87.7838 6.49339 88.7593 6.52435V9.67576C88.6336 9.64643 88.5064 9.62432 88.3782 9.60956C88.259 9.5954 88.1391 9.58803 88.0191 9.58749C87.0643 9.58749 86.304 9.85496 85.7383 10.3899C85.1726 10.9248 84.8898 11.7506 84.8898 12.8673V18.3898H81.4956Z" fill="#02353C"/>
<path d="M94.3841 18.3898L89.4674 6.6969H92.9458L97.036 16.767H95.2968L99.5576 6.6969H102.795L97.8625 18.3898H94.3841Z" fill="#02353C"/>
<path d="M109.664 18.5723C108.451 18.5998 107.249 18.3313 106.163 17.79C105.195 17.3066 104.385 16.5575 103.826 15.6303C103.268 14.7031 102.986 13.6362 103.012 12.5544C102.996 11.4654 103.273 10.3922 103.814 9.4471C104.335 8.54052 105.099 7.79823 106.021 7.3047C107.009 6.78105 108.113 6.51604 109.23 6.5344C110.31 6.51416 111.378 6.76449 112.336 7.26257C113.239 7.74281 113.991 8.46345 114.51 9.34479C115.068 10.3314 115.345 11.4516 115.313 12.5845C115.313 12.7149 115.313 12.8633 115.291 13.0298C115.268 13.1963 115.26 13.3528 115.246 13.4972H105.752V11.5233H113.467L112.135 12.109C112.162 11.5587 112.042 11.0112 111.788 10.5223C111.551 10.0832 111.197 9.71855 110.765 9.46916C110.302 9.208 109.776 9.07635 109.244 9.08802C108.709 9.07741 108.18 9.20892 107.712 9.46916C107.273 9.71877 106.915 10.0883 106.679 10.5343C106.426 11.0355 106.301 11.5919 106.318 12.1532V12.6747C106.302 13.2692 106.453 13.8563 106.753 14.3698C107.039 14.8445 107.458 15.2257 107.957 15.4671C108.527 15.7352 109.152 15.8657 109.782 15.8482C110.332 15.8561 110.878 15.7595 111.391 15.5634C111.873 15.3676 112.313 15.0793 112.685 14.7148L114.49 16.6727C113.937 17.2947 113.244 17.776 112.468 18.0769C111.574 18.4208 110.622 18.589 109.664 18.5723Z" fill="#02353C"/>
<path d="M125.16 18.6505C124.026 18.6632 122.898 18.4681 121.834 18.0748C120.864 17.7188 119.976 17.1678 119.227 16.4557C118.478 15.7436 117.882 14.8856 117.477 13.9345C117.056 12.9379 116.845 11.865 116.857 10.7831C116.845 9.70114 117.056 8.62832 117.477 7.63165C117.882 6.68704 118.477 5.83615 119.226 5.13219C119.993 4.41478 120.894 3.85699 121.878 3.49129C124.145 2.69121 126.622 2.72606 128.865 3.58959C129.915 4.01819 130.85 4.68824 131.593 5.54542L129.355 7.63165C128.841 7.07508 128.22 6.62815 127.529 6.31773C126.848 6.02864 126.114 5.88383 125.375 5.89246C124.689 5.88415 124.009 6.00599 123.369 6.25153C122.78 6.47482 122.244 6.81615 121.792 7.25453C121.348 7.69242 121.001 8.21773 120.771 8.79713C120.292 10.0612 120.292 11.4568 120.771 12.7208C120.998 13.3049 121.346 13.8346 121.792 14.2755C122.242 14.7147 122.773 15.0616 123.357 15.2965C123.989 15.5487 124.664 15.6741 125.345 15.6656C126.038 15.6687 126.726 15.554 127.381 15.3266C128.087 15.0658 128.739 14.6753 129.302 14.1752L131.308 16.7168C130.441 17.3715 129.462 17.8642 128.42 18.1711C127.362 18.489 126.264 18.6505 125.16 18.6505ZM128.095 16.2614V10.5484H131.304V16.7168L128.095 16.2614Z" fill="#02353C"/>
<path d="M140.135 18.5723C138.922 18.6 137.721 18.3315 136.636 17.79C135.667 17.3073 134.856 16.5584 134.298 15.6311C133.74 14.7037 133.458 13.6364 133.485 12.5544C133.469 11.4654 133.746 10.3922 134.287 9.4471C134.808 8.54098 135.573 7.79885 136.494 7.3047C137.482 6.78105 138.586 6.51604 139.703 6.5344C140.781 6.51834 141.846 6.77211 142.801 7.2726C143.705 7.7492 144.459 8.46633 144.981 9.34479C145.539 10.3314 145.816 11.4516 145.784 12.5845C145.784 12.7149 145.784 12.8633 145.762 13.0298C145.739 13.1963 145.733 13.3528 145.719 13.4972H136.223V11.5233H143.938L142.612 12.109C142.64 11.5587 142.52 11.0109 142.265 10.5223C142.028 10.0838 141.675 9.71926 141.244 9.46916C140.78 9.2083 140.254 9.07668 139.721 9.08802C139.187 9.07748 138.658 9.209 138.191 9.46916C137.752 9.71824 137.393 10.0879 137.158 10.5343C136.9 11.0342 136.773 11.591 136.787 12.1532V12.6747C136.772 13.2692 136.923 13.856 137.222 14.3698C137.509 14.844 137.927 15.2251 138.426 15.4671C138.996 15.7352 139.621 15.8657 140.251 15.8482C140.802 15.8565 141.349 15.7599 141.864 15.5634C142.345 15.3669 142.784 15.0787 143.156 14.7148L144.961 16.6727C144.407 17.2938 143.715 17.775 142.939 18.0769C142.045 18.4204 141.093 18.5886 140.135 18.5723Z" fill="#02353C"/>
<path d="M155.154 6.52435C156.015 6.50966 156.869 6.6994 157.643 7.07801C158.379 7.45285 158.982 8.04453 159.37 8.77307C159.789 9.53267 159.999 10.5069 160 11.6958V18.3898H156.61V12.2173C156.61 11.2812 156.403 10.5858 155.99 10.1311C155.577 9.67643 154.994 9.45176 154.241 9.45711C153.737 9.44898 153.239 9.56909 152.794 9.80615C152.365 10.0374 152.015 10.3934 151.791 10.8272C151.53 11.3833 151.407 11.9945 151.432 12.6085V18.3898H148.042V6.69687H151.28V9.94657L150.678 8.96765C151.084 8.19765 151.714 7.56835 152.484 7.16226C153.306 6.72951 154.224 6.51017 155.154 6.52435Z" fill="#02353C"/>
<path d="M55.2974 35.3504V26.0787H51.6686V24.7628H60.4247V26.0787H56.7959V35.3504H55.2974Z" fill="#02353C"/>
<path d="M64.5932 35.4407C63.807 35.4576 63.0293 35.2754 62.3324 34.9111C61.7026 34.5785 61.1787 34.076 60.8199 33.4608C60.4536 32.8158 60.2679 32.0841 60.2823 31.3425C60.2681 30.6036 60.448 29.8738 60.8039 29.2261C61.141 28.6213 61.6387 28.1215 62.2422 27.7818C62.8719 27.4283 63.5842 27.2483 64.3063 27.2603C65.0252 27.2453 65.735 27.4226 66.3625 27.7738C66.9574 28.1131 67.4443 28.6138 67.7667 29.2181C68.117 29.8869 68.2916 30.6338 68.2742 31.3886C68.2742 31.4488 68.2742 31.519 68.2742 31.5992C68.2742 31.6795 68.2621 31.7557 68.2521 31.8259H61.4317V30.7828H67.4958L66.9061 31.1459C66.924 30.6672 66.8146 30.1924 66.5891 29.7698C66.3766 29.377 66.0601 29.0501 65.6744 28.8249C65.2596 28.6011 64.7957 28.4839 64.3244 28.4839C63.853 28.4839 63.3891 28.6011 62.9743 28.8249C62.5828 29.0489 62.2629 29.3793 62.0516 29.7778C61.8228 30.2099 61.7082 30.6932 61.7186 31.182V31.4107C61.7093 31.9117 61.8376 32.4058 62.0897 32.8389C62.3348 33.2564 62.6939 33.5952 63.1248 33.8158C63.5986 34.054 64.1232 34.1731 64.6534 34.1629C65.0959 34.1691 65.5351 34.0866 65.9452 33.9202C66.3353 33.7579 66.6841 33.5105 66.9663 33.196L67.7687 34.1328C67.4012 34.5593 66.9369 34.8915 66.4146 35.1017C65.8357 35.3336 65.2167 35.4488 64.5932 35.4407Z" fill="#02353C"/>
<path d="M73.7786 35.4407C73.0171 35.4542 72.2649 35.2718 71.5941 34.9111C70.9697 34.574 70.4494 34.0724 70.0896 33.4608C69.7317 32.8125 69.544 32.084 69.544 31.3435C69.544 30.6029 69.7317 29.8745 70.0896 29.2262C70.4479 28.6149 70.9687 28.1149 71.5941 27.7819C72.2662 27.4256 73.018 27.2461 73.7786 27.2603C74.4513 27.248 75.1174 27.3951 75.7224 27.6896C76.2839 27.9702 76.746 28.4162 77.0464 28.9674L75.9431 29.6795C75.7057 29.3092 75.374 29.0088 74.9822 28.8089C74.6035 28.6227 74.1866 28.5273 73.7646 28.5301C73.2743 28.5223 72.7905 28.6419 72.3604 28.8771C71.95 29.1064 71.61 29.4435 71.3774 29.852C71.1259 30.3077 71.0006 30.8222 71.0144 31.3425C71.0012 31.8653 71.1265 32.3822 71.3774 32.841C71.6081 33.2531 71.9483 33.5933 72.3604 33.8239C72.7905 34.0592 73.2743 34.1787 73.7646 34.1709C74.1866 34.1738 74.6035 34.0783 74.9822 33.8921C75.374 33.6923 75.7057 33.3918 75.9431 33.0215L77.0464 33.7176C76.7408 34.2648 76.2802 34.7095 75.7224 34.9954C75.1204 35.2998 74.4531 35.4527 73.7786 35.4407Z" fill="#02353C"/>
<path d="M83.0964 27.2603C83.6952 27.2473 84.2885 27.3766 84.8276 27.6374C85.3275 27.8903 85.7368 28.2919 85.9991 28.7869C86.3024 29.3914 86.4481 30.0628 86.4224 30.7387V35.3525H84.972V30.9052C84.972 30.1269 84.7815 29.5431 84.4043 29.15C84.0272 28.7568 83.4936 28.5602 82.8096 28.5602C82.3428 28.5486 81.8804 28.6527 81.4636 28.8631C81.0817 29.0604 80.7716 29.3726 80.5769 29.7558C80.3565 30.2122 80.2504 30.7155 80.268 31.2221V35.3505H78.8156V24.129H80.268V29.497L79.9811 28.9233C80.2428 28.3978 80.6641 27.9688 81.1847 27.6976C81.7752 27.3939 82.4326 27.2435 83.0964 27.2603Z" fill="#02353C"/>
<defs>
<radialGradient id="paint0_radial_694_2337" cx="0" cy="0" r="1" gradientUnits="userSpaceOnUse" gradientTransform="translate(23.4343 18.5443) scale(19.6647)">
<stop stop-color="#2BAF7D"/>
<stop offset="1" stop-color="#02353C"/>
</radialGradient>
<radialGradient id="paint1_radial_694_2337" cx="0" cy="0" r="1" gradientUnits="userSpaceOnUse" gradientTransform="translate(22.1846 17.4109) scale(10.2466 10.2466)">
<stop stop-color="#2BAF7D"/>
<stop offset="1" stop-color="#02353C"/>
</radialGradient>
</defs>
</svg>
