<svg width="36" height="34" viewBox="0 0 36 34" fill="none" xmlns="http://www.w3.org/2000/svg">
<path d="M7.55509 3.77946C7.55459 4.78133 7.15612 5.74197 6.44734 6.45005C5.73856 7.15813 4.77752 7.55564 3.77566 7.55514C2.77379 7.55464 1.81315 7.15616 1.10508 6.44738C0.397009 5.73859 -0.000500461 4.77755 4.72876e-07 3.77568C0.000501406 2.77381 0.398972 1.81317 1.10775 1.10509C1.81653 0.397011 2.77757 -0.000500464 3.77943 4.72879e-07C4.7813 0.00050141 5.74194 0.398974 6.45001 1.10776C7.15808 1.81655 7.55559 2.77758 7.55509 3.77946ZM7.66842 10.3524H0.113327V34H7.66842V10.3524ZM19.6055 10.3524H12.0881V34H19.5299V21.5907C19.5299 14.6777 28.5394 14.0356 28.5394 21.5907V34H36V19.0219C36 7.36815 22.6653 7.80257 19.5299 13.5256L19.6055 10.3524Z" fill="#F9F9F9"/>
</svg>
