<svg width="29" height="29" viewBox="0 0 29 29" fill="none" xmlns="http://www.w3.org/2000/svg">
<path d="M23.2362 18.4388L20.167 18.0884C19.8061 18.046 19.4403 18.086 19.0971 18.2052C18.7539 18.3245 18.4422 18.5201 18.1853 18.7771L15.962 21.0005C12.5318 19.2559 9.74366 16.4678 7.99909 13.0376L10.2345 10.8021C10.7541 10.2826 11.0078 9.55755 10.9233 8.82047L10.5728 5.77547C10.5043 5.18602 10.2215 4.64234 9.77805 4.24795C9.33464 3.85357 8.76168 3.63602 8.16826 3.63672H6.07784C4.71243 3.63672 3.57659 4.77255 3.66118 6.13797C4.30159 16.4571 12.5545 24.698 22.8616 25.3384C24.227 25.423 25.3628 24.2871 25.3628 22.9217V20.8313C25.3749 19.6109 24.4566 18.5838 23.2362 18.4388Z" fill="#02353C"/>
</svg>
